<svg width="240" height="114" viewBox="0 0 240 114" fill="none" xmlns="http://www.w3.org/2000/svg">
<path d="M11.3438 56.8082L32.2258 51.8275V41H21.3984L11.3438 56.8082Z" fill="black"/>
<path d="M1 56.6164C0.999163 57.8801 1.15256 59.1392 1.45678 60.3657L11.3488 56.8065L1.37456 53.207C1.12604 54.3253 1.00044 55.4673 1 56.6128V56.6164Z" fill="black"/>
<path d="M4.67969 46.5478L11.3468 56.8053L14.42 41.1523C10.6192 41.6889 7.15052 43.6104 4.67969 46.5478Z" fill="black"/>
<path d="M11.3438 56.8066L32.2258 61.7837V72.6076H21.3984L11.3438 56.8066Z" fill="black"/>
<path d="M4.67944 67.0602L11.3447 56.8027L14.4161 72.4539C10.6158 71.9158 7.14764 69.9945 4.67578 67.0584L4.67944 67.0602Z" fill="black"/>
<path d="M50.6872 56.8561C50.6872 51.4259 54.8768 47.5762 60.7473 47.5762C64.5221 47.5762 67.5076 49.0726 68.8231 52.0033C68.8231 52.0124 63.9996 53.2823 63.9996 53.2823C63.5837 52.8256 63.0752 52.4629 62.5081 52.2184C61.941 51.9739 61.3283 51.8532 60.7108 51.8644C58.0615 51.8644 55.9822 53.7098 55.9822 56.8579C55.9822 60.0061 58.0615 61.8533 60.7108 61.8533C61.3247 61.8688 61.9348 61.7521 62.4995 61.5113C63.0645 61.2704 63.5711 60.911 63.985 60.4574L68.8103 61.6103C67.4948 64.4734 64.5185 66.1434 60.7418 66.1434C54.8768 66.1434 50.6836 62.2881 50.6836 56.8561H50.6872Z" fill="black"/>
<path d="M90.0215 55.5512V65.8762H84.7941V56.3478C84.7941 53.4244 83.4512 52.0906 81.1399 52.0906C78.6258 52.0906 76.8151 53.6345 76.8151 56.9526V65.8708H71.5859V42.279L76.8133 41V49.7172C78.2238 48.3085 80.2355 47.5776 82.5486 47.5776C86.8058 47.5776 90.0251 50.057 90.0251 55.5585L90.0215 55.5512Z" fill="black"/>
<path d="M112.852 46.9961V65.8758H107.857V63.7965C106.55 65.3715 104.637 66.1444 102.226 66.1444C97.128 66.1444 93.207 62.523 93.207 56.8571C93.207 51.1912 97.128 47.5771 102.222 47.5771C104.435 47.5771 106.313 48.2824 107.619 49.755V48.2933L112.848 47.0144L112.852 46.9961ZM107.722 56.8625C107.722 53.7455 105.712 51.8672 103.128 51.8672C100.545 51.8672 98.502 53.7455 98.502 56.8625C98.502 59.9796 100.512 61.8561 103.128 61.8561C105.745 61.8561 107.722 59.9742 107.722 56.8571V56.8625Z" fill="black"/>
<path d="M128.509 47.6103V52.4303C128.072 52.3992 127.736 52.3645 127.336 52.3645C124.453 52.3645 122.54 53.9395 122.54 57.3927V65.9089H117.312V48.237L122.306 47.0293V50.2523C123.581 48.5093 125.725 47.6103 128.509 47.6103Z" fill="black"/>
<path d="M149.964 46.9961V62.8574C149.964 69.5629 146.345 72.6471 139.84 72.6471C136.422 72.6471 133.1 71.8084 130.99 70.1677L133.069 66.4129C134.609 67.6536 137.125 68.4575 139.436 68.4575C143.125 68.4575 144.735 66.782 144.735 63.5243V62.7532C143.361 64.2606 141.382 64.9988 139.036 64.9988C134.043 64.9988 130.02 61.5455 130.02 56.2815C130.02 51.0176 134.043 47.5771 139.036 47.5771C141.552 47.5771 143.63 48.4158 145.005 50.1588V48.2184L149.968 46.9997L149.964 46.9961ZM144.795 56.287C144.795 53.6377 142.818 51.8635 140.067 51.8635C137.315 51.8635 135.305 53.6413 135.305 56.287C135.305 58.9327 137.315 60.7105 140.067 60.7105C142.818 60.7105 144.795 58.9327 144.795 56.287Z" fill="black"/>
<path d="M159.113 59.827C159.976 61.2357 161.532 61.952 163.619 61.952C165.532 61.952 166.908 61.3819 168.147 60.2089L170.931 63.2273C169.256 65.1403 166.74 66.1507 163.489 66.1507C157.252 66.1507 153.195 62.2297 153.195 56.8634C153.195 51.4972 157.286 47.5762 162.852 47.5762C167.836 47.5762 171.956 50.9034 172.17 56.445L159.117 59.8307M158.328 56.7337L167.14 54.6307C166.637 52.7853 165.03 51.5246 162.852 51.5246C160.237 51.5301 158.328 53.1927 158.328 56.7337Z" fill="black"/>
<path d="M202.977 59.827C203.839 61.2357 205.396 61.952 207.484 61.952C209.395 61.952 210.773 61.3819 212.01 60.2089L214.794 63.2273C213.119 65.1403 210.603 66.1507 207.353 66.1507C201.115 66.1507 197.059 62.2297 197.059 56.8634C197.059 51.4972 201.149 47.5762 206.715 47.5762C211.699 47.5762 215.819 50.9034 216.033 56.445L202.986 59.8343M202.196 56.7374L211.01 54.6343C210.506 52.7889 208.898 51.5282 206.72 51.5282C204.1 51.5301 202.191 53.1927 202.191 56.7337L202.196 56.7374Z" fill="black"/>
<path d="M223.945 59.827C224.808 61.2357 226.364 61.952 228.453 61.952C230.364 61.952 231.742 61.3819 232.979 60.2089L235.763 63.2273C234.088 65.1403 231.572 66.1507 228.319 66.1507C222.084 66.1507 218.027 62.2297 218.027 56.8634C218.027 51.4972 222.118 47.5762 227.684 47.5762C232.668 47.5762 236.788 50.9034 237.002 56.445L223.954 59.8343M223.165 56.7374L231.977 54.6343C231.475 52.7889 229.867 51.5282 227.689 51.5282C225.069 51.5301 223.16 53.1927 223.16 56.7337L223.165 56.7374Z" fill="black"/>
<path d="M195.014 56.8576C195.014 62.5217 191.093 66.1448 186.028 66.1448C183.613 66.1448 181.673 65.372 180.364 63.797V65.8762H175.367V42.279L180.602 41V49.7483C181.937 48.2719 183.781 47.5776 186.027 47.5776C191.088 47.5776 195.012 51.1972 195.012 56.8649L195.014 56.8576ZM189.715 56.8576C189.715 53.7405 187.739 51.8641 185.12 51.8641C182.502 51.8641 180.529 53.7405 180.529 56.8576C180.529 59.9746 182.508 61.8511 185.122 61.8511C187.737 61.8511 189.717 59.9746 189.717 56.8576H189.715Z" fill="black"/>
</svg>
