<svg width="240" height="114" viewBox="0 0 240 114" fill="none" xmlns="http://www.w3.org/2000/svg">
<path d="M97.5514 71.7418L97.4297 41.5005C97.4297 38.46 99.8108 36.0005 102.865 36.0005H103.461C106.518 36.0005 108.997 38.46 108.997 41.5005L109.118 71.7418C109.118 74.7776 106.644 77.2441 103.581 77.2441H102.953C99.8896 77.2441 97.5514 74.7776 97.5514 71.7418Z" fill="black"/>
<path d="M167.426 39.5723L179.723 59.4731C182.38 63.7706 182.998 64.89 182.998 68.0586C182.998 73.0557 178.441 76.8789 174.397 76.8789L157.794 76.8789C154.759 76.8789 152.313 74.7966 152.313 71.7869V71.443C152.313 68.4357 154.759 66 157.794 66H167.972C168.609 66 169.015 65.9146 169.182 65.5138C169.368 65.075 169.318 64.8284 169.015 64.3374L161.764 52.7707C161.642 52.5786 161.509 52.313 161.28 52.313C161.07 52.313 160.888 52.5786 160.79 52.7849L149.703 71.6873C147.985 74.6875 145.953 76.8789 142.922 76.8789H121.619C117.587 76.8789 113.523 72.9253 113.523 68.8294V41.4839C113.523 38.4789 115.971 36.0385 118.99 36.0385H119.689C122.714 36.0385 125.169 38.4789 125.169 41.4839L125.159 63.8228C125.159 64.6481 125.761 65.3003 126.655 65.3003H137.249C139.098 65.3003 140.217 64.6386 141.19 63.0306L155.427 39.5723C156.787 37.3405 158.963 36.1476 161.53 36.1476C164.014 36.1476 165.982 37.2646 167.426 39.5723Z" fill="black"/>
<path d="M70.132 62.7234C69.3065 62.7234 68.6456 63.3851 68.6456 64.2034V71.8141C68.6456 74.8214 66.1953 77.25 63.1747 77.25H62.4709C59.4503 77.25 57 74.8214 57 71.8141L57.0048 57.9729C57.0048 54.4605 59.7175 51.4935 63.5207 51.4935H85.7668C88.7849 51.4935 91.2377 53.9316 91.2377 56.9389V57.2804C91.2377 60.2924 88.7849 62.7234 85.7668 62.7234H70.132Z" fill="black"/>
<path d="M62.5948 37.385H88.7865C91.8733 37.385 94.3837 40.0084 94.3837 43.3672V43.7453C94.3837 47.1198 91.8733 49.8457 88.7865 49.8457L62.5948 49.8457C59.5056 49.8457 57 47.1198 57 43.7453V43.3278C57 39.9611 59.5056 37.385 62.5948 37.385Z" fill="black"/>
</svg>
