<svg width="156" height="408" viewBox="0 0 156 408" fill="none" xmlns="http://www.w3.org/2000/svg">
<path d="M113.6 268.4C113.6 264.4 115.067 260.867 118 257.8C121.067 254.6 124.533 253 128.4 253C131.467 253 133.933 254 135.8 256C137.667 258 138.6 260.467 138.6 263.4C138.6 267.4 137.067 270.933 134 274C130.933 277.067 127.467 278.6 123.6 278.6C120.667 278.6 118.267 277.667 116.4 275.8C114.533 273.8 113.6 271.333 113.6 268.4ZM107.6 319.2C108.667 316 109.2 313.533 109.2 311.8C109.2 308.467 107.733 306.8 104.8 306.8C101.733 306.8 99 308.4 96.6 311.6C94.2 314.8 91.6667 320 89 327.2L86.2 334.6H82.4L87.6 320C90.2667 312.4 93.8 307.067 98.2 304C102.733 300.933 107.467 299.4 112.4 299.4C121.2 299.4 125.6 303.6 125.6 312C125.6 316.4 124.533 321.533 122.4 327.4L101 388C99.9334 391.2 99.4 393.667 99.4 395.4C99.4 398.733 101 400.4 104.2 400.4C107 400.4 109.6 398.867 112 395.8C114.4 392.733 117 387.467 119.8 380L122.6 372.6H126.4L121.2 387.2C118.533 394.533 115 399.8 110.6 403C106.333 406.2 101.667 407.8 96.6 407.8C87.2667 407.8 82.6 403.733 82.6 395.6C82.6 391.733 83.8 386.467 86.2 379.8L107.6 319.2Z" fill="black"/>
<path d="M155.9 83V102.2H137V83H155.9ZM155.5 124.1V227.5H137.6V124.1H155.5Z" fill="black"/>
<path d="M34.1 267.4C24.0333 267.4 15.8333 264.767 9.5 259.5C3.16667 254.233 0 246.867 0 237.4C0 225.933 4 217.4 12 211.8C20 206.2 32.8333 203.2 50.5 202.8L69 202.3V194.2C69 187.867 67.0667 182.867 63.2 179.2C59.4 175.467 53.5333 173.6 45.6 173.6C39.6667 173.667 34.4333 175.1 29.9 177.9C25.3667 180.633 22.4667 185.067 21.2 191.2H4.9C5.43333 181.133 9.36667 173.433 16.7 168.1C24.0333 162.7 33.9667 160 46.5 160C59.9667 160 70.0333 162.833 76.7 168.5C83.4333 174.167 86.8 182.4 86.8 193.2V265.4H71L69.7 246C65.6333 254.067 60.5333 259.667 54.4 262.8C48.2667 265.867 41.5 267.4 34.1 267.4ZM39.7 254.1C44.3 254.1 48.8333 253 53.3 250.8C57.8333 248.6 61.5667 245.8 64.5 242.4C67.4333 238.933 68.9333 235.267 69 231.4V213.7L53.6 214C41.7333 214.2 32.8333 215.967 26.9 219.3C20.9667 222.567 18 228 18 235.6C18 241.467 20 246.033 24 249.3C28.0667 252.5 33.3 254.1 39.7 254.1Z" fill="black"/>
<path d="M69.3 297V193.6H87.2V208.6C89.7334 204.267 93.7 200.433 99.1 197.1C104.5 193.767 111.333 192.1 119.6 192.1C126.133 192.1 132.133 193.4 137.6 196C143.133 198.6 147.533 202.667 150.8 208.2C154.133 213.667 155.8 220.733 155.8 229.4V297H137.3V231.2C137.3 223.133 135.167 217.167 130.9 213.3C126.7 209.367 121.233 207.4 114.5 207.4C109.833 207.4 105.467 208.167 101.4 209.7C97.3334 211.167 94.0334 213.433 91.5001 216.5C88.9667 219.5 87.7 223.3 87.7 227.9V297H69.3Z" fill="black"/>
<path d="M3 374.9V271.5H20.9V286.5C23.4333 282.167 27.4 278.333 32.8 275C38.2 271.667 45.0333 270 53.3 270C59.8333 270 65.8333 271.3 71.3 273.9C76.8333 276.5 81.2333 280.567 84.5 286.1C87.8333 291.567 89.5 298.633 89.5 307.3V374.9H71V309.1C71 301.033 68.8667 295.067 64.6 291.2C60.4 287.267 54.9333 285.3 48.2 285.3C43.5333 285.3 39.1667 286.067 35.1 287.6C31.0333 289.067 27.7333 291.333 25.2 294.4C22.6667 297.4 21.4 301.2 21.4 305.8V374.9H3Z" fill="black"/>
<path d="M134.547 33.0867C131.078 33.0867 128.091 31.9257 125.586 29.6039C123.273 27.282 122.117 23.8959 122.117 19.4457C122.117 15.5759 123.081 11.1256 125.008 6.09492C119.997 8.22329 116.047 10.6419 113.156 13.3508C110.266 15.8661 107.664 19.0587 105.352 22.9285C109.784 29.7006 112 38.3109 112 48.7593C112 64.0449 107.375 75.5575 98.125 83.2971C88.875 90.8432 76.638 94.6162 61.4141 94.6162H61.125C54.7656 98.2925 49.9479 101.679 46.6719 104.774C43.3958 107.87 41.7578 111.353 41.7578 115.223C41.7578 121.414 46.3828 124.51 55.6328 124.51H91.7656C104.87 124.51 115.661 127.413 124.141 133.217C132.813 138.829 137.148 147.342 137.148 158.758C137.148 168.045 134.161 176.656 128.188 184.589C122.214 192.522 113.445 198.907 101.883 203.744C90.3203 208.581 76.349 211 59.9688 211C43.2031 211 29.1354 208.388 17.7656 203.164C6.58854 198.133 1 190.587 1 180.525C1 173.947 3.60156 168.239 8.80469 163.402C14.2005 158.564 21.6198 154.791 31.0625 152.083L32.7969 156.726C28.5573 158.081 25.1849 160.79 22.6797 164.853C20.1745 168.916 18.9219 173.463 18.9219 178.494C18.9219 187.394 22.8724 194.166 30.7734 198.81C38.8672 203.647 49.6589 206.066 63.1484 206.066C77.987 206.066 90.7057 203.164 101.305 197.359C111.904 191.748 117.203 182.944 117.203 170.948C117.203 163.982 114.698 158.564 109.688 154.695C104.87 150.825 96.1979 148.89 83.6719 148.89H62.2813C50.9115 148.89 41.7578 147.439 34.8203 144.536C28.0755 141.634 24.7031 135.829 24.7031 127.122C24.7031 121.124 26.8229 115.416 31.0625 109.999C35.4948 104.581 42.7214 99.26 52.7422 94.0358C40.0234 92.6813 29.8099 88.2311 22.1016 80.685C14.5859 73.1389 10.8281 62.497 10.8281 48.7593C10.8281 33.4736 15.4531 22.0578 24.7031 14.5117C33.9531 6.77212 46.1901 2.90233 61.4141 2.90233C79.5286 2.90233 92.9219 7.93306 101.594 17.9945C105.255 12.7703 109.88 8.51353 115.469 5.22421C121.057 1.74141 126.646 0 132.234 0C137.245 0 141.292 1.45117 144.375 4.3535C147.458 7.25585 149 11.4159 149 16.8336C149 22.2513 147.458 26.3145 144.375 29.0234C141.484 31.7322 138.208 33.0867 134.547 33.0867ZM61.4141 89.392C69.1224 89.392 74.9037 86.3929 78.7578 80.3948C82.8047 74.2031 84.8281 63.658 84.8281 48.7593C84.8281 33.8606 82.8047 23.4122 78.7578 17.414C74.9037 11.2224 69.1224 8.12654 61.4141 8.12654C53.7057 8.12654 47.8281 11.2224 43.7813 17.414C39.9271 23.4122 38 33.8606 38 48.7593C38 63.658 39.9271 74.2031 43.7813 80.3948C47.8281 86.3929 53.7057 89.392 61.4141 89.392Z" fill="black"/>
</svg>
