<svg width="240" height="114" viewBox="0 0 240 114" fill="none" xmlns="http://www.w3.org/2000/svg">
<path d="M51.2194 69.1C46.9253 69.1 43.4925 68.0537 41.0119 65.9905C38.6841 64.0566 37.2969 60.6679 37.2969 56.9177C37.2969 53.1675 38.7194 49.8141 41.103 47.9302C43.5454 45.9816 46.9489 45 51.2194 45C55.4899 45 58.9051 45.9846 61.3769 47.9214C63.7575 49.8024 65.18 53.1617 65.18 56.9089C65.18 60.6562 63.7781 64.0214 61.4268 65.967C58.9227 68.039 55.4869 69.1 51.2194 69.1ZM51.2194 47.6245C47.8423 47.6245 45.1972 48.3769 43.3573 49.8641C41.6115 51.2778 40.571 53.9141 40.571 56.9177C40.571 59.9214 41.6262 62.6018 43.3926 64.1037C45.253 65.6819 47.8894 66.4813 51.2223 66.4813C54.6052 66.4813 57.2651 65.6878 59.1255 64.1301C60.889 62.64 61.947 59.9479 61.947 56.9266C61.947 53.9052 60.889 51.2601 59.1196 49.8729C57.2621 48.4034 54.6052 47.6481 51.2223 47.6481" fill="black"/>
<path d="M144.845 68.4032C144.512 68.4025 144.193 68.27 143.958 68.0348C143.723 67.7996 143.591 67.4809 143.59 67.1483V46.9307C143.59 46.6 143.721 46.2827 143.955 46.0485C144.188 45.8144 144.505 45.6824 144.836 45.6816H157.768C159.999 45.6816 161.883 46.1578 163.388 47.0953C165.183 48.2063 166.056 49.7816 166.056 51.9124C166.056 53.4701 165.41 54.7427 164.084 55.8036L163.32 56.415L164.155 56.9234C165.939 58.0079 166.8 59.6156 166.8 61.8375C166.8 64.1887 165.742 65.8992 163.567 67.0542C161.909 67.9359 159.811 68.4032 157.327 68.4032H144.845ZM146.688 65.7816H157.742C159.505 65.7816 160.954 65.4672 162.044 64.8411C163.294 64.1563 163.931 63.1541 163.931 61.8698C163.958 61.2521 163.806 60.6398 163.493 60.1065C163.18 59.5732 162.72 59.1415 162.168 58.8632C160.992 58.2225 159.461 57.8962 157.615 57.8962H146.691L146.688 65.7816ZM146.688 55.2717H157.662C159.258 55.2717 160.572 54.9778 161.574 54.4047C162.059 54.157 162.463 53.777 162.74 53.3088C163.018 52.8407 163.156 52.3034 163.141 51.7595C163.156 51.2218 163.019 50.6907 162.744 50.2277C162.47 49.7648 162.071 49.389 161.592 49.1438C160.592 48.5766 159.285 48.2886 157.697 48.2886H146.676L146.688 55.2717Z" fill="black"/>
<path d="M28.949 65.7846H14.1125C14.1099 65.785 14.1073 65.7849 14.1048 65.7842C14.1024 65.7835 14.1 65.7822 14.0981 65.7806C14.0961 65.7789 14.0945 65.7768 14.0935 65.7744C14.0924 65.7721 14.0919 65.7695 14.0919 65.7669V47.2276C14.0919 46.8176 13.929 46.4243 13.6391 46.1344C13.3492 45.8445 12.956 45.6816 12.546 45.6816C12.1359 45.6816 11.7427 45.8445 11.4528 46.1344C11.1629 46.4243 11 46.8176 11 47.2276V67.0395C11 67.2169 11.035 67.3926 11.103 67.5565C11.1709 67.7203 11.2706 67.8692 11.3962 67.9945C11.5217 68.1198 11.6708 68.2191 11.8348 68.2867C11.9988 68.3543 12.1746 68.3889 12.352 68.3885H28.949C29.2963 68.3885 29.6293 68.2506 29.8749 68.005C30.1204 67.7595 30.2584 67.4265 30.2584 67.0792C30.2584 66.7319 30.1204 66.3989 29.8749 66.1534C29.6293 65.9078 29.2963 65.7699 28.949 65.7699" fill="black"/>
<path d="M196.592 65.786H181.761C181.756 65.786 181.752 65.7842 181.749 65.7809C181.745 65.7776 181.743 65.7731 181.743 65.7684V47.229C181.743 46.8186 181.58 46.4251 181.29 46.1349C181 45.8447 180.606 45.6816 180.196 45.6816C179.786 45.6816 179.392 45.8447 179.102 46.1349C178.812 46.4251 178.649 46.8186 178.649 47.229V67.041C178.647 67.2194 178.68 67.3964 178.747 67.5618C178.814 67.7271 178.913 67.8776 179.038 68.0044C179.164 68.1312 179.313 68.2319 179.478 68.3006C179.643 68.3693 179.819 68.4047 179.998 68.4047H196.595C196.942 68.4047 197.275 68.2668 197.52 68.0212C197.766 67.7757 197.904 67.4426 197.904 67.0954C197.904 66.7481 197.766 66.4151 197.52 66.1695C197.275 65.924 196.942 65.786 196.595 65.786" fill="black"/>
<path d="M227.568 65.7875H210.903V57.8757H225.452C225.788 57.8597 226.106 57.7148 226.338 57.471C226.571 57.2272 226.701 56.9032 226.701 56.5663C226.701 56.2294 226.571 55.9054 226.338 55.6616C226.106 55.4178 225.788 55.2729 225.452 55.257H210.903V48.2974H227.568C227.915 48.2974 228.247 48.1596 228.493 47.9143C228.738 47.669 228.876 47.3364 228.876 46.9895C228.876 46.6426 228.738 46.31 228.493 46.0647C228.247 45.8194 227.915 45.6816 227.568 45.6816H209.031C208.719 45.6816 208.42 45.8055 208.2 46.026C207.979 46.2464 207.855 46.5455 207.855 46.8573V67.2159C207.855 67.5277 207.979 67.8267 208.2 68.0472C208.42 68.2676 208.719 68.3915 209.031 68.3915H227.568C227.915 68.3915 228.247 68.2537 228.493 68.0084C228.738 67.7631 228.876 67.4305 228.876 67.0836C228.876 66.7367 228.738 66.4041 228.493 66.1588C228.247 65.9135 227.915 65.7758 227.568 65.7758" fill="black"/>
<path d="M132.463 65.9236L120.522 46.9051C120.298 46.532 119.981 46.2232 119.603 46.0088C119.224 45.7943 118.797 45.6816 118.361 45.6816C117.926 45.6816 117.499 45.7943 117.12 46.0088C116.742 46.2232 116.425 46.532 116.201 46.9051L104.251 65.9177C104.116 66.0855 104.017 66.2794 103.961 66.4872C103.904 66.6949 103.892 66.9121 103.923 67.1251C103.954 67.3381 104.029 67.5423 104.144 67.7249C104.258 67.9075 104.408 68.0646 104.586 68.1864C104.763 68.3082 104.964 68.3919 105.175 68.4325C105.387 68.473 105.604 68.4695 105.814 68.422C106.024 68.3746 106.222 68.2843 106.396 68.1568C106.569 68.0293 106.715 67.8674 106.823 67.6811L110.605 61.6414H126.115L129.889 67.6987C129.997 67.885 130.142 68.0469 130.315 68.1744C130.489 68.3019 130.687 68.3922 130.897 68.4397C131.107 68.4871 131.324 68.4906 131.536 68.4501C131.747 68.4096 131.948 68.3258 132.126 68.204C132.303 68.0823 132.454 67.9252 132.568 67.7425C132.682 67.5599 132.757 67.3557 132.788 67.1427C132.82 66.9298 132.807 66.7126 132.75 66.5048C132.694 66.297 132.595 66.1032 132.46 65.9353M118.353 49.3798L124.448 59.0227H112.266L118.353 49.3798Z" fill="black"/>
<path d="M97.8043 45.7112C96.7717 45.0692 95.5265 44.8634 94.3422 45.1389C93.1579 45.4144 92.1314 46.1488 91.4882 47.1807C90.148 49.3204 86.6329 54.9104 86.6329 54.9104C86.6329 54.9104 83.1059 49.3262 81.7775 47.1807C81.1332 46.1557 80.1082 45.4286 78.9278 45.1594C77.7474 44.8901 76.5084 45.1008 75.4834 45.745C74.4584 46.3893 73.7313 47.4143 73.462 48.5946C73.1927 49.775 73.4034 51.0139 74.0477 52.0389L83.7467 67.4512C84.0485 67.9488 84.4734 68.3602 84.9805 68.6457C85.4876 68.9312 86.0597 69.0812 86.6417 69.0812C87.2236 69.0812 87.7958 68.9312 88.3029 68.6457C88.8099 68.3602 89.2349 67.9488 89.5367 67.4512L99.2357 52.0389C99.8836 51.0116 100.099 49.7698 99.8347 48.5843C99.5704 47.3988 98.8479 46.366 97.8249 45.7112" fill="black"/>
</svg>
