<svg width="240" height="114" viewBox="0 0 240 114" fill="none" xmlns="http://www.w3.org/2000/svg">
<path d="M64.0626 90.9107C64.0626 88.1625 64.0626 84.3338 64.0626 84.3338C64.0626 82.0151 63.1523 79.5586 59.5586 79.5586C57.1476 79.5586 55.8735 80.6621 55.146 81.7666C54.5547 80.3482 52.8935 79.5586 51.2333 79.5586C48.936 79.5586 47.7077 80.7758 47.1387 81.4729V79.6482H45V90.9097H47.1377V83.7705C47.5248 82.6217 48.5256 81.2254 50.6643 81.2254C52.3469 81.2254 53.621 82.5081 53.621 84.4003V90.9097H55.6459C55.6459 90.9097 55.6459 84.4686 55.6459 84.4003C55.6459 83.0271 56.67 81.2254 59.013 81.2254C61.1284 81.2254 61.9473 82.6439 61.9473 84.4677V90.9088H64.0626V90.9107Z" fill="black"/>
<path d="M79.7361 90.842V89.49C79.668 89.5141 79.1 89.49 78.9172 89.49C78.3939 89.4698 78.1887 89.1309 78.1887 88.2296C78.1887 86.4732 78.1887 84.3325 78.1887 83.2964C78.1887 80.7292 76.3457 79.5371 73.071 79.5371C72.8891 79.5371 72.7296 79.5371 72.5477 79.5573V81.0903H72.9796C75.2311 81.0903 76.0053 81.8328 76.0053 82.8015C76.0053 83.2281 75.5501 83.6344 72.5477 83.9281V85.2107C72.6615 85.2107 72.752 85.1886 72.8668 85.1886C74.5727 85.0307 75.6192 84.762 76.0967 84.3557C76.0734 84.9873 76.0734 86.3152 76.0053 87.126C75.8915 88.2979 74.595 89.3793 72.5477 89.5806V90.9325C73.8666 90.7746 75.1407 90.3249 76.2329 89.3562C76.3467 90.2575 76.7561 90.9547 78.0302 90.9547C78.5992 90.9547 79.2819 90.8873 79.7361 90.842ZM72.5477 79.5573C70.1591 79.67 68.5222 80.6387 67.4991 81.878L68.7274 82.892C69.5687 81.6979 71.0237 81.1808 72.5477 81.0903V79.5573ZM72.5487 83.9291C72.503 83.9291 72.4573 83.9291 72.3892 83.9291C69.5911 84.1756 66.793 84.8747 66.793 87.6229C66.793 89.7385 68.2946 91.0009 71.1608 91.0009C71.616 91.0009 72.0935 90.9788 72.5487 90.9335V89.5815C72.3211 89.6037 72.0935 89.6037 71.8436 89.6037C69.842 89.6037 69.0007 88.9508 69.0007 87.6662C69.0007 86.0004 70.5248 85.438 72.5487 85.2117V83.9291Z" fill="black"/>
<path d="M94.0227 87.6441L91.9531 87.3051C91.1799 88.9036 89.9281 89.4891 88.018 89.4891C85.9931 89.4891 83.833 88.2517 83.833 85.3234C83.833 82.5078 85.6303 81.0451 87.9956 81.0451C89.7929 81.0451 91.2713 81.8106 91.8636 83.1626L94.0013 82.7793C93.2505 80.8197 91.1127 79.5371 87.9732 79.5371C84.1743 79.5371 81.6719 81.6979 81.6719 85.2791C81.6719 89.1761 84.4476 90.9778 88.018 90.9778C90.9746 90.9768 93.09 90.0755 94.0227 87.6441Z" fill="black"/>
<path d="M103.666 81.3603V79.5586C103.598 79.5586 103.507 79.5586 103.462 79.5586C101.21 79.5586 99.845 80.4387 98.9581 81.6761V79.6713H96.8203V90.9107H98.9581V83.8167C99.6408 82.3964 100.915 81.2495 103.03 81.2495C103.212 81.2486 103.53 81.3169 103.666 81.3603Z" fill="black"/>
<path d="M118.361 85.2791C118.361 81.5631 115.564 79.5371 111.764 79.5371H111.742V81.0229H111.764C114.015 81.0229 116.222 82.3277 116.222 85.2791C116.222 87.8242 114.539 89.49 111.764 89.49H111.742V90.9999H111.764C115.563 90.9999 118.361 88.8372 118.361 85.2791ZM111.742 79.5371C107.806 79.5371 105.145 81.7654 105.145 85.2791C105.145 88.9277 107.715 90.9999 111.742 90.9999V89.49C109.399 89.49 107.283 88.1622 107.283 85.2791C107.283 82.5761 109.331 81.0229 111.742 81.0229V79.5371Z" fill="black"/>
<path d="M140.493 90.9107C140.493 88.1625 140.493 84.3338 140.493 84.3338C140.493 82.0151 139.606 79.5586 135.989 79.5586C133.578 79.5586 132.304 80.6621 131.599 81.7666C131.008 80.3482 129.324 79.5586 127.664 79.5586C125.389 79.5586 124.161 80.7758 123.591 81.4729V79.6482H121.453V90.9097H123.591V83.7705C123.956 82.6217 124.956 81.2254 127.117 81.2254C128.778 81.2254 130.052 82.5081 130.052 84.4003V90.9097H132.077C132.077 90.9097 132.077 84.4686 132.077 84.4003C132.077 83.0271 133.123 81.2254 135.465 81.2254C137.581 81.2254 138.377 82.6439 138.377 84.4677V90.9088H140.493V90.9107Z" fill="black"/>
<path d="M156.168 85.7076C156.19 81.7432 153.733 79.5573 149.798 79.5371V80.9777C151.936 80.9998 153.642 81.9464 154.006 84.4009H149.798V85.7076H156.168ZM149.798 90.9999C152.914 90.9999 154.962 89.6249 155.826 87.7105L153.756 87.3514C153.119 88.7467 151.732 89.5372 149.798 89.5372V90.9999ZM149.798 79.5371C149.776 79.5371 149.752 79.5371 149.73 79.5371C146.227 79.5371 143.406 81.7654 143.406 85.1212C143.406 89.0635 145.999 90.9999 149.752 90.9999H149.798V89.5372C149.776 89.5372 149.776 89.5363 149.752 89.5363C147.523 89.5363 145.635 88.2065 145.544 85.7067L149.798 85.7076V84.4009L145.59 84.4C145.749 82.3277 147.751 80.9767 149.752 80.9767L149.798 80.9777V79.5371Z" fill="black"/>
<path d="M170.996 90.9095V74.7832H168.881V81.4034C168.221 80.5021 166.697 79.647 164.695 79.5565V80.999H164.809C166.946 80.999 168.721 82.4395 168.857 83.882C168.857 83.9725 168.88 84.715 168.88 85.1868C168.88 85.6837 168.857 86.4492 168.857 86.5388C168.813 88.0024 167.242 89.5778 164.831 89.5778C164.785 89.5778 164.74 89.5778 164.694 89.5778V90.975C166.923 90.9076 168.333 89.9611 168.902 89.0828V90.9076H170.996V90.9095ZM164.695 79.5565C164.604 79.5565 164.491 79.5565 164.377 79.5565C161.101 79.5565 158.371 81.6287 158.371 85.2552C158.371 88.949 160.943 90.976 164.423 90.976H164.695V89.5788C162.488 89.5354 160.533 88.2056 160.533 85.2552C160.533 82.8006 162.034 81.0442 164.695 80.999V79.5565Z" fill="black"/>
<path d="M176.847 77.9577V75.7969H174.641V77.9577H176.847ZM176.824 90.9092V79.6467H174.685V90.9083L176.824 90.9092Z" fill="black"/>
<path d="M192.497 90.842V89.49C192.43 89.5141 191.861 89.49 191.678 89.49C191.155 89.4698 190.95 89.1309 190.95 88.2296C190.95 86.4732 190.95 84.3325 190.95 83.2964C190.95 80.7292 189.107 79.5371 185.832 79.5371C185.649 79.5371 185.468 79.5371 185.308 79.5573V81.0903H185.74C187.992 81.0903 188.765 81.8328 188.765 82.8015C188.765 83.2281 188.31 83.6344 185.308 83.9281V85.2107C185.399 85.2107 185.513 85.1886 185.627 85.1886C187.331 85.0307 188.378 84.762 188.855 84.3557C188.833 84.9873 188.833 86.3152 188.764 87.126C188.651 88.2979 187.355 89.3793 185.307 89.5806V90.9325C186.625 90.7746 187.899 90.3249 188.992 89.3562C189.105 90.2575 189.515 90.9547 190.789 90.9547C191.36 90.9547 192.043 90.8873 192.497 90.842ZM185.308 79.5573C182.921 79.67 181.283 80.6387 180.26 81.878L181.488 82.892C182.33 81.6979 183.785 81.1808 185.31 81.0903V79.5573H185.308ZM185.309 83.9291C185.264 83.9291 185.218 83.9291 185.15 83.9291C182.353 84.1756 179.555 84.8747 179.555 87.6229C179.555 89.7385 181.055 91.0009 183.922 91.0009C184.377 91.0009 184.854 90.9788 185.309 90.9335V89.5815C185.083 89.6037 184.854 89.6037 184.604 89.6037C182.602 89.6037 181.761 88.9508 181.761 87.6662C181.761 86.0004 183.285 85.438 185.308 85.2117L185.309 83.9291Z" fill="black"/>
<path d="M131.252 29.0805C136.301 34.0801 136.301 42.1659 131.252 47.1654L108.413 69.7541C103.363 74.7537 95.1963 74.7537 90.1466 69.7541C85.097 64.7555 85.097 56.6697 90.1466 51.6922L112.985 29.0805C118.034 24.0799 126.2 24.0799 131.252 29.0805Z" fill="black"/>
<path d="M167.854 29.2387L190.692 51.5346C195.742 56.5342 195.742 64.62 190.692 69.6205C185.643 74.6182 177.454 74.6182 172.403 69.6205L158.709 55.7686L144.992 69.6205C139.987 74.6182 131.799 74.6182 126.749 69.6205C121.698 64.62 121.698 56.5342 126.749 51.5346L149.566 29.2387C154.615 24.2381 162.805 24.2381 167.854 29.2387Z" fill="black"/>
<path d="M180.806 26.5886C179.61 26.5886 178.589 27.0145 177.742 27.8664C176.899 28.7136 176.478 29.7372 176.478 30.9371C176.478 32.1461 176.897 33.1766 177.735 34.0284C178.578 34.8803 179.601 35.3062 180.806 35.3062C182.01 35.3062 183.034 34.8803 183.876 34.0284C184.719 33.1766 185.14 32.1461 185.14 30.9371C185.14 29.7372 184.719 28.7136 183.876 27.8664C183.029 27.0145 182.006 26.5886 180.806 26.5886ZM185.855 30.9371C185.855 32.3339 185.362 33.5269 184.378 34.5162C183.393 35.5054 182.202 36 180.806 36C179.409 36 178.22 35.5054 177.24 34.5162C176.265 33.5315 175.777 32.3385 175.777 30.9371C175.777 29.5494 176.269 28.3633 177.254 27.3786C178.234 26.3985 179.418 25.9085 180.806 25.9085C182.202 25.9085 183.393 26.3985 184.378 27.3786C185.362 28.3587 185.855 29.5448 185.855 30.9371ZM182.125 29.8379C182.125 29.4349 182.001 29.1647 181.754 29.0273C181.511 28.8899 181.119 28.8212 180.579 28.8212H179.748V30.8272H180.627C181.039 30.8272 181.348 30.786 181.554 30.7035C181.935 30.5524 182.125 30.2639 182.125 29.8379ZM180.709 28.1549C181.396 28.1549 181.9 28.2213 182.221 28.3541C182.793 28.5923 183.079 29.0594 183.079 29.7555C183.079 30.2501 182.899 30.6142 182.537 30.8478C182.344 30.9714 182.077 31.0607 181.733 31.1157C182.168 31.1844 182.486 31.3653 182.688 31.6584C182.889 31.9515 182.99 32.2377 182.99 32.5171V32.9224C182.99 33.0506 182.995 33.188 183.004 33.3346C183.013 33.4811 183.029 33.5773 183.052 33.6231L183.086 33.6918H182.173C182.168 33.6735 182.164 33.6552 182.159 33.6368C182.154 33.6185 182.15 33.5979 182.145 33.575L182.125 33.3964V32.9568C182.125 32.3156 181.951 31.892 181.603 31.6859C181.396 31.5668 181.035 31.5073 180.517 31.5073H179.748V33.6918H178.772V28.1549H180.709Z" fill="black"/>
</svg>
