<svg width="240" height="114" viewBox="0 0 240 114" fill="none" xmlns="http://www.w3.org/2000/svg">
<path d="M161.571 57C161.571 82.2328 140.558 103 115.024 103C89.4903 103 68.4766 82.2317 68.4766 57C68.4766 31.7656 88.9989 11 115.024 11C140.065 11 161.571 31.7668 161.571 57Z" fill="black"/>
<path d="M125.579 81.0289C145.639 88.9879 142.158 68.8749 131.465 53.4745C125.405 44.7497 117.501 37.4808 112.516 33.9725C95.9868 22.3366 85.7828 29.3938 97.4549 52.3415C101.229 59.761 106.076 64.7686 109.862 69.4886C112.753 73.092 118.384 74.8964 116.4 76.6065C114.165 78.5347 108.752 70.0301 108.752 70.0301C104.754 65.3792 100.944 60.4173 97.0165 53.6081C88.0436 38.0545 89.3373 22.1802 105.578 29.0951C119.361 34.9664 132.526 51.4336 137.819 63.1279C140.264 68.5273 146.929 89.8931 125.7 81.2551" fill="white"/>
<path fill-rule="evenodd" clip-rule="evenodd" d="M64.0977 70.9171C72.8432 65.1191 81.1349 61.3756 95.2455 56.7364C115.074 50.2157 129.998 45.8327 148.307 36.6707C156.503 32.5705 170.725 23.375 175.811 15.3809C174.288 18.4747 169.572 24.4965 167.438 27.1602C142.594 58.127 89.6737 56.3711 64.4469 71.238" fill="#D4D7D9"/>
<path d="M76.8034 48.9375C84.8227 48.9994 84.0359 48.9217 84.1296 49.0141C84.2698 49.0141 90.5327 59.6216 90.5327 59.7129C90.5327 59.7582 90.4859 55.9434 90.4859 51.1723C90.4859 50.6213 88.9442 49.0142 88.9903 49.0142C91.2793 49.0142 94.271 49.0603 94.271 49.0603C93.1501 50.3461 92.9261 50.2406 92.9168 51.0351C92.8852 53.5902 92.8556 58.312 92.9168 63.6162C92.9255 64.4112 93.5245 64.7182 94.5059 66.0959H87.1674C84.7838 62.193 80.416 54.8713 80.4377 54.8919C80.4712 54.9255 80.3436 59.4846 80.4833 63.1569C80.5306 64.3706 81.0915 64.7638 82.1203 65.8664C82.1203 65.8664 83.3036 65.8352 76.3711 65.9119C78.4742 64.8099 78.1949 63.4326 78.1939 63.3867C78.1182 58.3119 78.1782 53.9732 78.1782 51.1722C78.1782 50.7132 78.1464 50.7585 76.6983 49.0141" fill="white"/>
<path d="M101.883 56.7743C102.556 54.4755 103.131 52.4208 103.404 51.0814C103.451 50.8516 102.89 50.0254 102.002 49.1986L101.939 49.0703C106.221 49.084 110.695 49.1066 110.695 49.1066C111.863 51.9077 114.527 59.7588 116.537 64.5805C117.068 65.8549 117.986 66.0955 117.986 66.0955C114.34 66.0501 107.575 66.0808 107.611 66.0501C109.433 64.442 109.199 64.442 108.405 62.101H102.704C101.535 64.7635 103.068 66.0136 103.264 66.0039C101.966 66.0697 97.5625 66.0039 97.5625 66.0039C99.9461 64.3503 99.8054 63.8458 99.8054 63.8458C100.46 61.5549 101.219 59.0452 101.883 56.773L104.222 56.7733C103.72 58.3584 103.217 59.9421 103.217 59.9421H107.752L105.228 53.6052C105.228 53.6052 104.725 55.1896 104.222 56.7733L101.883 56.773" fill="white"/>
<path d="M141.048 57.0025C141.72 54.7042 142.296 52.649 142.569 51.3087C142.615 51.0801 142.054 50.2539 141.166 49.4265L141.103 49.2988C145.386 49.3125 149.861 49.3351 149.861 49.3351C151.027 52.1362 153.692 59.9877 155.701 64.809C156.232 66.084 157.15 66.3246 157.15 66.3246C153.506 66.2781 146.74 66.3099 146.775 66.2781C148.599 64.6717 148.365 64.6717 147.57 62.3297H141.868C140.699 64.9928 142.231 66.2423 142.428 66.2334C141.131 66.2986 136.727 66.2334 136.727 66.2334C139.11 64.5798 138.97 64.0747 138.97 64.0747C139.625 61.7834 140.384 59.2743 141.048 57.0025L143.387 57.0026C142.883 58.5875 142.383 60.1718 142.383 60.1718H146.915L144.391 53.835C144.391 53.835 143.89 55.4188 143.387 57.0026L141.048 57.0025Z" fill="white"/>
<path d="M133.673 53.2408C133.58 49.9797 133.673 48.9238 133.673 48.9238C132.224 50.0723 132.955 49.9259 129.327 49.3374C118.872 47.6408 118.075 57.24 123.765 59.3932C128.541 61.201 130.233 61.5552 129.513 63.2496C129.279 63.8018 124.933 65.8219 120.447 61.7351L120.539 67.4288C121.1 66.8608 122.644 65.8218 122.644 65.8218C122.69 65.8218 127.507 67.9089 131.85 65.7293C138.535 62.378 135.198 56.9531 128.065 54.8014C122.129 53.0104 127.738 48.8316 133.626 53.2863" fill="white"/>
<path d="M116.173 16.1208C116.173 16.3262 116.003 16.4947 115.794 16.4947C115.586 16.4947 115.414 16.3262 115.414 16.1208C115.414 15.9171 115.586 15.748 115.794 15.748C116.003 15.748 116.173 15.9171 116.173 16.1208Z" fill="white"/>
<path d="M118.802 21.7729C118.802 22.0248 118.59 22.232 118.335 22.232C118.078 22.232 117.867 22.0248 117.867 21.7729C117.867 21.5216 118.078 21.3145 118.335 21.3145C118.59 21.3145 118.802 21.5216 118.802 21.7729Z" fill="white"/>
<path d="M125.634 31.0123C125.634 31.2638 125.423 31.4714 125.167 31.4714C124.911 31.4714 124.699 31.2638 124.699 31.0123C124.699 30.7605 124.895 30.5527 125.152 30.5527C125.409 30.5527 125.634 30.7605 125.634 31.0123Z" fill="white"/>
<path d="M114.655 24.9594C114.655 25.1642 114.484 25.3322 114.275 25.3322C114.066 25.3322 113.895 25.1642 113.895 24.9594C113.895 24.755 114.066 24.5859 114.275 24.5859C114.484 24.5859 114.655 24.755 114.655 24.9594Z" fill="white"/>
<path d="M118.748 27.0838C118.748 27.2875 118.576 27.4566 118.368 27.4566C118.16 27.4566 117.988 27.2875 117.988 27.0838C117.988 26.8796 118.16 26.7109 118.368 26.7109C118.576 26.7109 118.748 26.8796 118.748 27.0838Z" fill="white"/>
<path d="M113.431 21.1413C113.431 21.3933 113.22 21.6003 112.963 21.6003C112.707 21.6003 112.496 21.3933 112.496 21.1413C112.496 20.8894 112.707 20.6816 112.963 20.6816C113.22 20.6816 113.431 20.8894 113.431 21.1413Z" fill="white"/>
<path d="M107.236 24.8422C107.236 25.0471 107.065 25.2156 106.856 25.2156C106.648 25.2156 106.477 25.0471 106.477 24.8422C106.477 24.6378 106.648 24.4688 106.856 24.4688C107.065 24.4688 107.236 24.6378 107.236 24.8422Z" fill="white"/>
<path d="M108.342 25.589C108.342 25.7945 108.171 25.963 107.962 25.963C107.754 25.963 107.582 25.7945 107.582 25.589C107.582 25.3847 107.754 25.2168 107.962 25.2168C108.171 25.2168 108.342 25.3847 108.342 25.589Z" fill="white"/>
<path d="M109.455 26.3351C109.455 26.5405 109.284 26.709 109.076 26.709C108.867 26.709 108.695 26.5405 108.695 26.3351C108.695 26.1314 108.867 25.9629 109.076 25.9629C109.284 25.9629 109.455 26.1314 109.455 26.3351Z" fill="white"/>
<path d="M107.761 27.7712C107.761 27.976 107.588 28.1445 107.38 28.1445C107.171 28.1445 107 27.976 107 27.7712C107 27.5669 107.171 27.3984 107.38 27.3984C107.588 27.3984 107.761 27.5669 107.761 27.7712Z" fill="white"/>
<path d="M98.9401 33.8559C98.9401 34.0607 98.7682 34.2287 98.5599 34.2287C98.3516 34.2287 98.1797 34.0607 98.1797 33.8559C98.1797 33.6511 98.3516 33.4824 98.5599 33.4824C98.7682 33.4824 98.9401 33.6511 98.9401 33.8559Z" fill="white"/>
<path d="M100.573 35.8089C100.573 36.0133 100.401 36.1818 100.193 36.1818C99.9844 36.1818 99.8125 36.0133 99.8125 35.8089C99.8125 35.6035 99.9844 35.4355 100.193 35.4355C100.401 35.4355 100.573 35.6035 100.573 35.8089Z" fill="white"/>
<path d="M99.275 67.3187C99.275 67.5236 99.1037 67.6916 98.8952 67.6916C98.687 67.6916 98.5156 67.5236 98.5156 67.3187C98.5156 67.1144 98.687 66.9453 98.8952 66.9453C99.1037 66.9453 99.275 67.1144 99.275 67.3187Z" fill="white"/>
<path d="M99.5089 76.0118C99.5089 76.2637 99.2977 76.4702 99.0416 76.4702C98.7853 76.4702 98.5742 76.2637 98.5742 76.0118C98.5742 75.7597 98.7853 75.5527 99.0416 75.5527C99.2977 75.5527 99.5089 75.7597 99.5089 76.0118Z" fill="white"/>
<path d="M94.4858 80.4633C94.4858 80.667 94.3145 80.8361 94.1068 80.8361C93.8985 80.8361 93.7266 80.667 93.7266 80.4633C93.7266 80.2579 93.8985 80.0898 94.1068 80.0898C94.3145 80.0898 94.4858 80.2579 94.4858 80.4633Z" fill="white"/>
<path d="M88.4665 82.2682C88.4665 82.5201 88.2541 82.7267 87.9986 82.7267C87.7423 82.7267 87.5312 82.5201 87.5312 82.2682C87.5312 82.0157 87.7423 81.8086 87.9986 81.8086C88.2541 81.8086 88.4665 82.0157 88.4665 82.2682Z" fill="white"/>
<path d="M87.2427 78.2506C87.2427 78.5014 87.0316 78.7091 86.7759 78.7091C86.5198 78.7091 86.3086 78.5014 86.3086 78.2506C86.3086 77.9982 86.5198 77.791 86.7759 77.791C87.0316 77.791 87.2427 77.9982 87.2427 78.2506Z" fill="white"/>
<path d="M86.5379 80.8089C86.5379 81.0137 86.366 81.1816 86.1577 81.1816C85.9494 81.1816 85.7773 81.0137 85.7773 80.8089C85.7773 80.6046 85.9494 80.4355 86.1577 80.4355C86.366 80.4355 86.5379 80.6046 86.5379 80.8089Z" fill="white"/>
<path d="M82.0406 78.6835C82.0406 78.8877 81.8693 79.0568 81.6616 79.0568C81.4527 79.0568 81.2812 78.8877 81.2812 78.6835C81.2812 78.4792 81.4527 78.3105 81.6616 78.3105C81.8693 78.3105 82.0406 78.4792 82.0406 78.6835Z" fill="white"/>
<path d="M97.7555 85.8577C97.7555 86.0627 97.5985 86.2312 97.3908 86.2312C97.1825 86.2312 96.9961 86.0627 96.9961 85.8577C96.9961 85.6535 97.168 85.4844 97.3757 85.4844C97.5846 85.4844 97.7555 85.6535 97.7555 85.8577Z" fill="white"/>
<path d="M102.493 82.4448C102.493 82.6973 102.297 82.9044 102.04 82.9044C101.784 82.9044 101.559 82.6973 101.559 82.4448C101.559 82.1939 101.77 81.9863 102.026 81.9863C102.283 81.9863 102.493 82.1939 102.493 82.4448Z" fill="white"/>
<path d="M103.032 86.8312C103.032 87.036 102.845 87.2052 102.638 87.2052C102.429 87.2052 102.258 87.036 102.258 86.8312C102.258 86.6269 102.429 86.459 102.638 86.459C102.845 86.459 103.032 86.6269 103.032 86.8312Z" fill="white"/>
<path d="M122.482 82.6423C122.482 82.8467 122.311 83.0158 122.103 83.0158C121.894 83.0158 121.723 82.8467 121.723 82.6423C121.723 82.4375 121.894 82.2695 122.103 82.2695C122.311 82.2695 122.482 82.4375 122.482 82.6423Z" fill="white"/>
<path d="M113.427 85.7972C113.427 86.002 113.256 86.1699 113.048 86.1699C112.84 86.1699 112.668 86.002 112.668 85.7972C112.668 85.5929 112.84 85.4238 113.048 85.4238C113.256 85.4238 113.427 85.5929 113.427 85.7972Z" fill="white"/>
<path d="M137.792 90.3343C137.792 90.5386 137.62 90.7071 137.412 90.7071C137.203 90.7071 137.031 90.5386 137.031 90.3343C137.031 90.1295 137.203 89.9609 137.412 89.9609C137.62 89.9609 137.792 90.1295 137.792 90.3343Z" fill="white"/>
<path d="M139.778 72.6842C139.778 72.9361 139.568 73.1438 139.311 73.1438C139.054 73.1438 138.844 72.9361 138.844 72.6842C138.844 72.4322 139.054 72.2246 139.311 72.2246C139.568 72.2246 139.778 72.4322 139.778 72.6842Z" fill="white"/>
<path d="M136.037 75.1814C136.037 75.3857 135.866 75.5548 135.657 75.5548C135.449 75.5548 135.277 75.3857 135.277 75.1814C135.277 74.9765 135.449 74.8086 135.657 74.8086C135.866 74.8086 136.037 74.9765 136.037 75.1814Z" fill="white"/>
<path d="M139.72 75.9004C139.72 76.1523 139.509 76.36 139.253 76.36C138.996 76.36 138.785 76.1523 138.785 75.9004C138.785 75.649 138.996 75.4414 139.253 75.4414C139.509 75.4414 139.72 75.649 139.72 75.9004Z" fill="white"/>
<path d="M136.037 80.3481C136.037 80.5523 135.866 80.7209 135.657 80.7209C135.449 80.7209 135.277 80.5523 135.277 80.3481C135.277 80.1433 135.449 79.9746 135.657 79.9746C135.866 79.9746 136.037 80.1433 136.037 80.3481Z" fill="white"/>
<path d="M145.56 70.1872C145.56 70.392 145.388 70.5607 145.18 70.5607C144.972 70.5607 144.801 70.392 144.801 70.1872C144.801 69.9824 144.972 69.8145 145.18 69.8145C145.388 69.8145 145.56 69.9824 145.56 70.1872Z" fill="white"/>
<path d="M146.477 72.4526C146.477 72.7051 146.282 72.9122 146.025 72.9122C145.768 72.9122 145.543 72.7051 145.543 72.4526C145.543 72.2006 145.754 71.9941 146.009 71.9941C146.266 71.9941 146.477 72.2006 146.477 72.4526Z" fill="white"/>
<path d="M153.036 75.151C153.036 75.4029 152.827 75.61 152.569 75.61C152.312 75.61 152.102 75.4029 152.102 75.151C152.102 74.8997 152.312 74.6914 152.569 74.6914C152.827 74.6914 153.036 74.8997 153.036 75.151Z" fill="white"/>
<path d="M146.378 79.9476C146.378 80.1518 146.205 80.3205 145.997 80.3205C145.789 80.3205 145.617 80.1518 145.617 79.9476C145.617 79.7422 145.789 79.5742 145.997 79.5742C146.205 79.5742 146.378 79.7422 146.378 79.9476Z" fill="white"/>
<path d="M150.583 76.0433C150.583 76.2481 150.412 76.416 150.204 76.416C149.996 76.416 149.824 76.2481 149.824 76.0433C149.824 75.8384 149.996 75.6699 150.204 75.6699C150.412 75.6699 150.583 75.8384 150.583 76.0433Z" fill="white"/>
<path d="M149.807 82.0687C149.807 82.2736 149.635 82.4416 149.428 82.4416C149.218 82.4416 149.047 82.2736 149.047 82.0687C149.047 81.8644 149.218 81.6953 149.428 81.6953C149.635 81.6953 149.807 81.8644 149.807 82.0687Z" fill="white"/>
<path d="M151.59 72.0522C151.59 72.3671 151.326 72.6258 151.006 72.6258C150.686 72.6258 150.422 72.3671 150.422 72.0522C150.422 71.7372 150.686 71.4785 151.006 71.4785C151.326 71.4785 151.59 71.7372 151.59 72.0522Z" fill="white"/>
<path d="M151.009 70.3066L150.835 71.8848L149.242 72.0572L150.847 72.2287L151.023 73.8651L151.199 72.2287L152.776 72.0283L151.185 71.8848L151.009 70.3066" fill="white"/>
<path d="M147.5 82.0385C147.5 82.3534 147.237 82.6121 146.917 82.6121C146.596 82.6121 146.332 82.3534 146.332 82.0385C146.332 81.7236 146.596 81.4648 146.917 81.4648C147.237 81.4648 147.5 81.7236 147.5 82.0385Z" fill="white"/>
<path d="M146.92 80.2891L146.744 81.8672L145.152 82.0397L146.758 82.2123L146.934 83.8475L147.11 82.2123L148.686 82.0113L147.094 81.8672L146.92 80.2891" fill="white"/>
<path d="M103.922 34.6303C103.922 34.9452 103.659 35.2039 103.338 35.2039C103.017 35.2039 102.754 34.9452 102.754 34.6303C102.754 34.3153 103.017 34.0566 103.338 34.0566C103.659 34.0566 103.922 34.3154 103.922 34.6303Z" fill="white"/>
<path d="M103.334 32.8789L103.159 34.457L101.566 34.6295L103.173 34.801L103.349 36.4374L103.524 34.801L105.101 34.6012L103.509 34.457L103.334 32.8789" fill="white"/>
<path d="M125.655 20.7402C125.655 21.0552 125.391 21.3145 125.071 21.3145C124.751 21.3145 124.488 21.0552 124.488 20.7402C124.488 20.4253 124.751 20.166 125.071 20.166C125.391 20.166 125.655 20.4253 125.655 20.7402Z" fill="white"/>
<path d="M125.068 18.9863L124.893 20.565L123.301 20.7375L124.908 20.91L125.082 22.546L125.258 20.91L126.835 20.7085L125.242 20.565L125.068 18.9863" fill="white"/>
<path d="M99.2276 91.2286C99.2276 91.5435 98.9639 91.8023 98.6437 91.8023C98.3223 91.8023 98.0586 91.5435 98.0586 91.2286C98.0586 90.9142 98.3223 90.6543 98.6437 90.6543C98.9639 90.6543 99.2276 90.9142 99.2276 91.2286Z" fill="white"/>
<path d="M98.6574 89.4707L98.4827 91.0493L96.8906 91.2218L98.4971 91.3938L98.6725 93.0298L98.8474 91.3938L100.425 91.1935L98.8329 91.0493L98.6574 89.4707Z" fill="white"/>
<path fill-rule="evenodd" clip-rule="evenodd" d="M175.809 15.3809C168.754 36.2039 140.493 52.2833 116.703 67.6338C102.351 76.8963 88.1018 87.5582 78.2922 96.6308C75.7065 99.0233 78.8191 95.7364 77.8281 96.7465C91.5179 81.0632 107.266 71.7219 115.968 65.8423C130.685 55.8944 139.056 53.3872 164.447 30.1179" fill="#D4D7D9"/>
<path d="M69.3101 67.9512C66.9342 68.9478 64.8058 69.9327 63 70.894L64.0988 71.2369C65.678 70.4029 67.5741 69.533 69.5714 68.7663" fill="#C2C2C2"/>
<path fill-rule="evenodd" clip-rule="evenodd" d="M83.0432 89.8574C80.828 92.0606 78.5385 94.4124 76.2421 96.8775L76.1406 98.6193C78.2433 96.1512 80.8263 93.4854 83.8072 90.657" fill="#D4D7D9"/>
<path d="M125.641 80.9583C145.623 89.1619 142.155 68.4308 131.504 52.5571C125.467 43.5642 118.022 36.4302 112.628 32.4558C106.33 27.8145 105.715 27.4297 105.715 27.4297C119.78 34.0923 132.558 50.4544 137.831 62.5084C140.266 68.0737 146.906 90.0961 125.758 81.1926" fill="white"/>
</svg>
