<svg width="240" height="114" viewBox="0 0 240 114" fill="none" xmlns="http://www.w3.org/2000/svg">
<path d="M59.9804 70.3019C60.025 72.3209 60.3568 72.9961 60.8609 73.1731C61.2859 73.3099 61.7303 73.3719 62.1754 73.3567C62.4498 73.3567 62.603 73.4091 62.603 73.5665C62.603 73.7238 62.3733 73.8221 62.0223 73.8221C60.3824 73.8221 59.3742 73.75 58.8956 73.75C58.6659 73.75 57.479 73.8221 56.1709 73.8221C55.8391 73.8221 55.6094 73.8221 55.6094 73.5665C55.6094 73.3108 55.7625 73.3567 56.0178 73.3567C56.3999 73.3626 56.7813 73.3208 57.1536 73.2321C57.7917 73.0224 57.9065 72.2685 57.9321 70.0135L58.1682 54.674C58.1682 54.1496 58.2447 53.7891 58.4936 53.7891C58.7425 53.7891 58.9977 54.1234 59.4316 54.5954C59.7315 54.9297 63.5665 59.1841 67.2483 62.9141C68.9648 64.6774 72.3532 68.4074 72.7998 68.8138H72.9147L72.6594 57.1913C72.6594 55.6114 72.4106 55.1198 71.8172 54.8576C71.3789 54.7345 70.9245 54.6836 70.4708 54.7068C70.1708 54.7068 70.0688 54.6216 70.0688 54.4708C70.0688 54.32 70.3495 54.2348 70.7069 54.2348C72.0277 54.2348 73.2593 54.3135 73.757 54.3135C74.0441 54.3135 74.9885 54.2348 76.2392 54.2348C76.5646 54.2348 76.8135 54.2348 76.8135 54.4708C76.8135 54.7068 76.6603 54.7068 76.3541 54.7068C76.1032 54.6976 75.8523 54.7218 75.6075 54.7789C74.8928 54.9887 74.7014 55.5328 74.6631 56.9815L74.3951 73.337C74.3951 73.9073 74.2994 74.1433 74.0633 74.1433C73.8272 74.1433 73.489 73.8614 73.2018 73.573C71.613 72.0194 68.3842 68.6237 65.7616 65.9557C63.0114 63.1501 60.2101 59.9117 59.757 59.4004H59.6996L59.9804 70.3019Z" fill="black"/>
<path d="M101.828 64.5215C101.828 58.7135 98.5738 55.1147 94.4389 55.1147C91.5355 55.1147 88.2237 56.7731 88.2237 63.2236C88.2237 68.6186 91.1335 72.8927 95.9767 72.8927C97.7315 72.9254 101.828 72.0143 101.828 64.5215ZM84.7461 64.0299C84.7461 59.5985 87.592 53.8691 95.1727 53.8691C101.439 53.8691 105.382 57.6253 105.382 63.5645C105.382 69.5036 101.343 74.1906 94.9366 74.1906C87.6877 74.1906 84.7652 68.6186 84.7652 64.0299" fill="black"/>
<path d="M113.59 56.7713C113.01 55.3422 112.589 55.0603 111.676 54.8047C111.356 54.7304 111.028 54.6973 110.7 54.7064C110.483 54.7064 110.406 54.6211 110.406 54.4704C110.406 54.3196 110.681 54.2344 111.044 54.2344C112.372 54.2344 113.814 54.313 114.701 54.313C115.339 54.313 116.545 54.2344 117.795 54.2344C118.102 54.2344 118.376 54.2868 118.376 54.4704C118.376 54.6539 118.217 54.7064 118.006 54.7064C117.663 54.6715 117.317 54.7327 117.004 54.8834C116.84 55.0126 116.748 55.2154 116.755 55.4274C116.862 56.1173 117.057 56.7896 117.336 57.4268L121.681 69.1936H121.777C122.875 66.342 126.148 57.9971 126.761 56.2862C126.875 55.9768 126.946 55.6524 126.971 55.3226C126.981 55.1085 126.858 54.9114 126.665 54.8309C126.333 54.7368 125.989 54.6948 125.644 54.7064C125.414 54.7064 125.223 54.7064 125.223 54.4966C125.223 54.2868 125.453 54.2344 125.931 54.2344C127.207 54.2344 128.241 54.313 128.567 54.313C129.013 54.313 130.187 54.2344 130.934 54.2344C131.285 54.2344 131.476 54.2868 131.476 54.4704C131.476 54.6539 131.323 54.7064 131.068 54.7064C130.637 54.6816 130.208 54.7888 129.836 55.0145C129.511 55.2439 129.128 55.67 128.452 57.3482C127.456 59.7802 126.78 61.183 125.414 64.3689C123.806 68.1448 122.607 70.957 122.071 72.2681C121.433 73.7692 121.267 74.1888 120.897 74.1888C120.527 74.1888 120.437 73.8217 119.959 72.6089L113.578 56.7713" fill="black"/>
<path d="M145.372 65.7659C145.506 65.7659 145.525 65.6872 145.506 65.6085L143.241 59.2106C143.241 59.1057 143.183 58.9746 143.107 58.9746C143.03 58.9746 142.992 59.1057 142.973 59.2106L140.643 65.5823C140.643 65.6872 140.643 65.7659 140.739 65.7659H145.372ZM140.267 67.0769C140.133 67.0769 140.095 67.1294 140.037 67.2867L138.64 70.9577C138.435 71.4601 138.312 71.9939 138.276 72.5375C138.276 73.0029 138.487 73.3373 139.278 73.3373H139.661C139.948 73.3373 140.025 73.3897 140.025 73.547C140.025 73.7044 139.891 73.8027 139.603 73.8027C138.793 73.8027 137.689 73.7306 136.93 73.7306C136.662 73.7306 135.258 73.8027 133.95 73.8027C133.618 73.8027 133.465 73.7502 133.465 73.547C133.465 73.3438 133.58 73.3373 133.771 73.3373C134.036 73.3337 134.3 73.3162 134.562 73.2848C135.717 73.134 136.196 72.2491 136.7 70.9577L143.03 54.7005C143.336 53.9466 143.489 53.6582 143.738 53.6582C143.987 53.6582 144.121 53.8942 144.376 54.4907C144.97 55.9132 149.009 66.4935 150.623 70.4267C151.587 72.7604 152.321 73.1275 152.857 73.252C153.206 73.3231 153.56 73.3583 153.916 73.3569C154.107 73.3569 154.241 73.3569 154.241 73.5667C154.241 73.7765 154.012 73.8224 153.067 73.8224C152.123 73.8224 150.317 73.8224 148.32 73.7699C147.854 73.7699 147.548 73.7699 147.548 73.5667C147.548 73.3635 147.643 73.3569 147.892 73.3307C148.009 73.2972 148.104 73.2097 148.149 73.094C148.194 72.9784 148.184 72.8477 148.122 72.7407L146.106 67.2408C146.083 67.1216 145.974 67.0411 145.857 67.0573H140.235" fill="black"/>
<path d="M164.895 63.7951C164.895 64.0835 164.952 64.1884 165.131 64.2605C165.753 64.4435 166.398 64.5319 167.045 64.5227C167.673 64.6092 168.31 64.4527 168.832 64.0835C169.585 63.5132 170.318 62.3202 170.318 60.1962C170.318 56.5121 167.951 55.4502 166.49 55.4502C166.039 55.4283 165.586 55.4635 165.143 55.5551C164.965 55.6075 164.907 55.7124 164.907 55.9156L164.895 63.7951ZM161.934 61.7826C161.934 57.8494 161.934 57.1152 161.876 56.2893C161.819 55.4633 161.627 54.9782 160.798 54.8078C160.469 54.7517 160.136 54.7276 159.803 54.7357C159.528 54.7357 159.375 54.6767 159.375 54.4997C159.375 54.3227 159.547 54.2637 159.937 54.2637C161.283 54.2637 162.859 54.3423 163.395 54.3423C164.244 54.3423 166.164 54.2637 166.956 54.2637C168.532 54.2637 170.229 54.421 171.595 55.3781C172.669 56.2265 173.301 57.5386 173.305 58.9311C173.305 60.8518 172.514 62.6086 169.974 64.7391C172.226 67.6431 173.956 69.944 175.462 71.55C176.865 73.0578 177.899 73.2413 178.269 73.3134C178.503 73.3605 178.74 73.3868 178.977 73.3921C179.188 73.3921 179.29 73.4707 179.29 73.6019C179.29 73.733 179.111 73.8575 178.805 73.8575H176.4C174.996 73.8575 174.364 73.733 173.707 73.3659C172.628 72.7759 171.671 71.55 170.248 69.5572C169.246 68.1347 168.091 66.3713 167.766 65.9846C167.647 65.852 167.475 65.7841 167.3 65.801L165.112 65.7158C164.978 65.7158 164.895 65.7683 164.895 65.919V66.2861C164.895 68.6985 164.895 70.7437 165.035 71.8319C165.112 72.5858 165.265 73.143 166.011 73.2544C166.42 73.3112 166.831 73.3462 167.243 73.3593C167.453 73.3593 167.549 73.438 167.549 73.5691C167.549 73.7002 167.377 73.8247 167.051 73.8247C165.59 73.8247 163.727 73.7526 163.338 73.7526C162.948 73.7526 161.283 73.8247 160.262 73.8247C159.937 73.8247 159.758 73.7526 159.758 73.5691C159.758 73.3855 159.86 73.3593 160.166 73.3593C160.469 73.3584 160.771 73.3233 161.066 73.2544C161.57 73.1561 161.704 72.5989 161.8 71.8319C161.934 70.7437 161.934 68.6985 161.934 66.3123V61.7826Z" fill="black"/>
<path d="M188.271 55.685L184.525 55.7833C183.057 55.8423 182.445 55.9668 182.062 56.5372C181.873 56.8157 181.729 57.1233 181.634 57.4483C181.596 57.6516 181.52 57.7564 181.366 57.7564C181.213 57.7564 181.137 57.6253 181.137 57.3435C181.137 56.9305 181.615 54.5706 181.654 54.3608C181.73 54.0265 181.807 53.8691 181.966 53.8691C182.32 54.0051 182.685 54.1082 183.057 54.1772C183.791 54.2559 184.755 54.3083 185.578 54.3083H195.564C196.379 54.315 197.192 54.2292 197.989 54.0527C198.161 54.0527 198.18 54.2035 198.18 54.5968C198.18 55.1409 198.104 56.9305 198.104 57.5991C198.104 57.8613 198.046 58.0121 197.893 58.0121C197.74 58.0121 197.644 57.8875 197.606 57.4942V57.2124C197.549 56.5568 196.872 55.8161 194.62 55.7571L191.429 55.685V66.3111C191.429 68.6973 191.429 70.7425 191.544 71.8569C191.64 72.5846 191.774 73.168 192.546 73.2532C192.969 73.3155 193.395 73.3505 193.822 73.3581C194.09 73.3581 194.224 73.4368 194.224 73.5679C194.224 73.699 194.014 73.8235 193.746 73.8235C192.067 73.8235 190.472 73.7514 189.783 73.7514C189.202 73.7514 187.607 73.8235 186.592 73.8235C186.267 73.8235 186.095 73.7514 186.095 73.5679C186.095 73.3843 186.19 73.3581 186.497 73.3581C186.802 73.3597 187.106 73.3245 187.403 73.2532C187.92 73.1549 188.073 72.5977 188.149 71.8307C188.264 70.7425 188.264 68.6973 188.264 66.3111V55.685" fill="black"/>
<path d="M207.878 61.7826C207.878 57.8494 207.878 57.1152 207.821 56.2893C207.763 55.4633 207.527 54.9782 206.972 54.834C206.675 54.7625 206.371 54.7294 206.066 54.7357C205.798 54.7357 205.664 54.6767 205.664 54.4734C205.664 54.2702 205.855 54.2637 206.257 54.2637C207.221 54.2637 208.81 54.3423 209.531 54.3423C210.169 54.3423 211.669 54.2637 212.607 54.2637C212.958 54.2637 213.149 54.3161 213.149 54.4734C213.149 54.6308 212.996 54.7357 212.741 54.7357C212.49 54.7354 212.24 54.7596 211.994 54.8078C211.298 54.9389 211.107 55.3781 211.05 56.2893C210.992 57.2005 211.011 57.8429 211.011 61.7826V66.3713C211.011 68.882 211.011 70.9601 211.107 72.0482C211.184 72.7431 211.356 73.2151 212.109 73.3134C212.532 73.3739 212.958 73.4089 213.385 73.4183C213.672 73.4183 213.787 73.497 213.787 73.6281C213.787 73.7592 213.596 73.8837 213.309 73.8837C211.656 73.8837 210.054 73.8116 209.384 73.8116C208.714 73.8116 207.208 73.8837 206.194 73.8837C205.868 73.8837 205.696 73.8116 205.696 73.6281C205.696 73.4445 205.792 73.4183 206.098 73.4183C206.403 73.419 206.707 73.3839 207.004 73.3134C207.521 73.2151 207.642 72.7759 207.738 72.0024C207.872 70.9142 207.872 68.8624 207.872 66.3517V61.7826" fill="black"/>
<path d="M222.936 73.5133C222.534 73.3297 222.457 73.2052 222.457 72.6349C222.457 71.2058 222.553 69.6522 222.572 69.2392C222.591 68.8262 222.687 68.5837 222.878 68.5837C223.07 68.5837 223.127 68.8131 223.127 69.0229C223.147 69.4689 223.227 69.91 223.363 70.3339C223.801 71.9831 225.315 73.0823 226.975 72.9561C229.246 72.9561 230.344 71.3762 230.344 69.9996C230.344 68.7344 229.98 67.5152 227.881 65.8567L226.707 64.9192C223.937 62.6904 222.974 60.8746 222.974 58.7769C222.974 55.9254 225.303 53.8801 228.806 53.8801C229.942 53.864 231.074 54.0118 232.169 54.3193C232.405 54.3717 232.52 54.4504 232.52 54.6274C232.52 54.9683 232.424 55.7221 232.424 57.7412C232.424 58.3115 232.341 58.5213 232.131 58.5213C231.92 58.5213 231.882 58.3639 231.882 58.0493C231.844 57.4275 231.621 56.8327 231.244 56.3449C230.592 55.4745 229.56 54.9971 228.493 55.0732C226.624 55.0732 225.488 56.1876 225.488 57.7412C225.488 58.9342 226.069 59.8454 228.162 61.4777L228.876 62.0152C231.882 64.4014 232.998 66.1516 232.998 68.6164C233.027 70.4405 232.13 72.1485 230.631 73.1265C229.418 73.8702 228.023 74.2389 226.611 74.1885C225.354 74.2454 224.1 74.0218 222.936 73.5329" fill="black"/>
<path d="M22.64 75.4384C8.40619 74.3851 4.07897 66.4732 8.87979 57.5708C11.4748 52.7747 15.3674 47.615 10.6963 42.8503C10.5666 42.6936 10.6963 42.5933 10.8715 42.6811C21.4852 46.7812 15.9448 55.063 14.1282 58.5112C10.5406 65.2695 12.8307 73.4823 22.64 75.2503C22.8541 75.2942 22.8411 75.4697 22.64 75.4509" fill="black"/>
<path d="M23.8439 68.0191L26.4346 39H20.3594L23.6275 68.0191C23.6275 68.2088 23.83 68.2025 23.8439 68.0191Z" fill="black"/>
<path d="M30.926 52.6034C34.1391 55.376 39.3737 70.8276 26.5865 75.2405C26.379 75.2991 26.3968 75.4748 26.5865 75.4488C46.9263 72.6631 39.9369 56.6322 31.092 52.4146C30.8548 52.2844 30.7422 52.4471 30.9201 52.6034" fill="black"/>
</svg>
