<svg width="240" height="114" viewBox="0 0 240 114" fill="none" xmlns="http://www.w3.org/2000/svg">
<path d="M117.967 26.603C117.316 26.9478 117.084 27.7519 117.427 28.3845C117.773 29.0328 118.595 29.2635 119.246 28.9245C119.896 28.5737 120.135 27.7776 119.787 27.1331C119.549 26.6956 119.084 26.4434 118.605 26.4434C118.389 26.4434 118.169 26.4945 117.967 26.603ZM121.569 26.6582C120.988 26.9616 120.781 27.6691 121.087 28.2406C121.394 28.8082 122.115 29.021 122.691 28.7096C123.281 28.4003 123.487 27.6948 123.18 27.1252C122.972 26.737 122.563 26.5104 122.139 26.5104C121.947 26.5104 121.751 26.5596 121.569 26.6582ZM114.548 27.6002C113.813 27.9924 113.534 28.8988 113.938 29.6181C114.338 30.3413 115.255 30.6232 116.001 30.229C116.738 29.8368 117.007 28.9304 116.611 28.211C116.338 27.7065 115.813 27.4188 115.269 27.4188C115.027 27.4188 114.778 27.478 114.548 27.6002ZM125.027 27.7656C124.517 28.0435 124.321 28.6722 124.594 29.1649C124.867 29.6614 125.513 29.8448 126.004 29.5728C126.522 29.3029 126.708 28.682 126.429 28.1875C126.245 27.8405 125.881 27.6454 125.507 27.6454C125.344 27.6454 125.178 27.6848 125.027 27.7656ZM111.837 29.8546C111.176 30.2093 110.933 30.9956 111.289 31.6479C111.645 32.2825 112.445 32.521 113.097 32.176C113.76 31.8312 114.001 31.0271 113.649 30.3946C113.409 29.9511 112.942 29.6949 112.465 29.6949C112.251 29.6949 112.035 29.7462 111.837 29.8546ZM128.001 29.8703C127.558 30.1088 127.399 30.6389 127.629 31.0626C127.863 31.4864 128.403 31.642 128.849 31.4233C129.28 31.1828 129.449 30.6527 129.213 30.225C129.047 29.9314 128.738 29.762 128.423 29.762C128.279 29.762 128.136 29.7974 128.001 29.8703ZM130.199 32.7475C129.851 32.9466 129.708 33.4019 129.908 33.7487C130.102 34.1053 130.557 34.2334 130.908 34.0443C131.274 33.853 131.409 33.4156 131.211 33.0589C131.074 32.8067 130.815 32.6667 130.545 32.6667C130.429 32.6667 130.31 32.6924 130.199 32.7475ZM109.901 32.8401C109.323 33.1495 109.109 33.863 109.412 34.4285C109.731 34.9921 110.453 35.2109 111.028 34.8995C111.608 34.598 111.83 33.8847 111.517 33.3131C111.297 32.9249 110.885 32.7022 110.463 32.7022C110.273 32.7022 110.081 32.7475 109.901 32.8401ZM131.318 35.8967C130.876 36.1233 130.71 36.6652 130.951 37.091C131.177 37.5166 131.731 37.6743 132.149 37.4555C132.589 37.2053 132.757 36.6711 132.527 36.2495C132.363 35.9558 132.054 35.7902 131.739 35.7902C131.595 35.7902 131.45 35.8257 131.318 35.8967ZM108.955 36.2987C108.454 36.5628 108.268 37.1855 108.537 37.6781C108.816 38.1807 109.444 38.3639 109.953 38.0959C110.457 37.826 110.648 37.1953 110.376 36.7066C110.188 36.3638 109.832 36.1687 109.462 36.1687C109.291 36.1687 109.117 36.2121 108.955 36.2987ZM131.322 39.235C130.813 39.511 130.633 40.1257 130.896 40.6322C131.165 41.1209 131.815 41.3003 132.316 41.0381C132.824 40.7682 133.005 40.1454 132.731 39.6507C132.545 39.3059 132.191 39.1128 131.819 39.1128C131.652 39.1128 131.484 39.1542 131.322 39.235ZM109.105 39.8853C108.677 40.1198 108.515 40.6579 108.749 41.0815C108.988 41.5131 109.531 41.6628 109.957 41.4263C110.392 41.2097 110.568 40.6637 110.321 40.24C110.153 39.9503 109.848 39.7809 109.529 39.7809C109.388 39.7809 109.242 39.8144 109.105 39.8853ZM130.241 42.4255C129.658 42.7271 129.447 43.4523 129.754 44.0199C130.072 44.5835 130.793 44.7963 131.361 44.4927C131.955 44.1774 132.159 43.474 131.858 42.9005C131.64 42.5103 131.229 42.2855 130.805 42.2855C130.615 42.2855 130.421 42.3289 130.241 42.4255ZM110.354 43.2867C109.99 43.474 109.858 43.9193 110.054 44.2858C110.248 44.6346 110.697 44.7706 111.067 44.5835C111.426 44.3824 111.562 43.939 111.364 43.5843C111.228 43.3399 110.968 43.2001 110.701 43.2001C110.584 43.2001 110.465 43.2276 110.354 43.2867ZM128.166 45.1548C127.512 45.5038 127.273 46.3039 127.625 46.9403C127.968 47.5808 128.785 47.8193 129.441 47.4665C130.092 47.1354 130.332 46.3216 129.979 45.687C129.732 45.2496 129.272 44.9934 128.797 44.9934C128.585 44.9934 128.368 45.0445 128.166 45.1548ZM112.427 45.9137C111.99 46.1383 111.829 46.6782 112.063 47.102C112.291 47.5296 112.835 47.6873 113.269 47.4508C113.702 47.23 113.865 46.6959 113.633 46.2683C113.475 45.9766 113.166 45.8131 112.847 45.8131C112.703 45.8131 112.56 45.8446 112.427 45.9137ZM125.267 47.1078C124.529 47.4942 124.247 48.3986 124.657 49.1258C125.057 49.8491 125.978 50.115 126.72 49.7328C127.453 49.3347 127.726 48.4243 127.332 47.7167C127.057 47.2123 126.534 46.9226 125.992 46.9226C125.748 46.9226 125.499 46.9817 125.267 47.1078ZM115.263 47.7562C114.746 48.0301 114.562 48.643 114.841 49.1396C115.104 49.6402 115.74 49.8313 116.245 49.5634C116.755 49.2815 116.944 48.6568 116.672 48.1641C116.48 47.8272 116.118 47.6321 115.752 47.6321C115.587 47.6321 115.417 47.6695 115.263 47.7562ZM122.022 48.4105C121.367 48.7514 121.139 49.5475 121.497 50.1959C121.836 50.8305 122.646 51.0827 123.301 50.722C123.958 50.385 124.192 49.5831 123.844 48.9445C123.598 48.5031 123.137 48.2528 122.66 48.2528C122.444 48.2528 122.226 48.304 122.022 48.4105ZM118.563 48.6154C117.983 48.9228 117.777 49.6382 118.084 50.2018C118.401 50.7734 119.123 50.9862 119.702 50.6806C120.288 50.3812 120.5 49.6637 120.187 49.0884C119.975 48.6982 119.561 48.4814 119.133 48.4814C118.939 48.4814 118.745 48.5228 118.563 48.6154Z" fill="black"/>
<path d="M118.523 21.5314C118.248 22.415 118.775 23.3356 119.698 23.6007C120.622 23.8618 121.586 23.3493 121.859 22.4758C122.136 21.5924 121.607 20.6599 120.688 20.4047C120.52 20.3555 120.353 20.334 120.188 20.334C119.432 20.334 118.748 20.8071 118.523 21.5314ZM123.185 22.0694C122.877 23.0902 123.464 24.1464 124.54 24.4487C125.6 24.7491 126.709 24.1719 127.017 23.163C127.339 22.1381 126.732 21.0702 125.666 20.7699C125.478 20.7188 125.29 20.6933 125.104 20.6933C124.237 20.6933 123.437 21.237 123.185 22.0694ZM113.842 22.4582C113.602 23.2453 114.075 24.066 114.896 24.2976C115.713 24.5292 116.579 24.0856 116.817 23.2945C117.05 22.513 116.579 21.6885 115.767 21.4569C115.623 21.4176 115.478 21.3981 115.336 21.3981C114.662 21.3981 114.044 21.8181 113.842 22.4582ZM127.905 24.1739C127.631 25.0554 128.164 25.98 129.085 26.2411C130.008 26.5022 130.975 25.9879 131.246 25.1084C131.52 24.2269 130.994 23.3003 130.07 23.0392C129.907 22.9921 129.744 22.9705 129.581 22.9705C128.825 22.9705 128.132 23.4496 127.905 24.1739ZM109.818 24.8218C109.628 25.4441 109.992 26.086 110.642 26.2706C111.287 26.4512 111.964 26.0938 112.156 25.4794C112.344 24.863 111.973 24.2151 111.326 24.0306C111.212 23.9973 111.097 23.9815 110.983 23.9815C110.454 23.9815 109.971 24.3134 109.818 24.8218ZM131.685 27.474C131.44 28.2691 131.915 29.0838 132.731 29.3154C133.555 29.5452 134.408 29.0896 134.654 28.3063C134.9 27.529 134.431 26.7045 133.605 26.4767C133.46 26.4354 133.313 26.4159 133.169 26.4159C132.506 26.4159 131.89 26.834 131.685 27.474ZM106.635 28.3241C106.478 28.8187 106.783 29.3469 107.304 29.4902C107.827 29.6373 108.368 29.3527 108.527 28.854C108.688 28.3593 108.38 27.8332 107.862 27.6801C107.773 27.6566 107.682 27.6448 107.591 27.6448C107.159 27.6448 106.763 27.9079 106.635 28.3241ZM134.373 31.7203C134.173 32.3505 134.557 32.9944 135.197 33.175C135.848 33.3576 136.521 33.0042 136.711 32.3838C136.901 31.7635 136.534 31.1176 135.889 30.939C135.774 30.9057 135.656 30.8899 135.54 30.8899C135.011 30.8899 134.524 31.2196 134.373 31.7203ZM104.761 32.6724C104.647 33.0494 104.862 33.4459 105.255 33.5539C105.649 33.6639 106.056 33.4459 106.172 33.073C106.286 32.6999 106.065 32.3092 105.67 32.1954C105.6 32.1777 105.532 32.1679 105.463 32.1679C105.145 32.1679 104.854 32.3662 104.761 32.6724ZM135.513 36.4437C135.356 36.9404 135.654 37.4723 136.183 37.6156C136.707 37.7649 137.253 37.4763 137.407 36.9737C137.558 36.481 137.265 35.953 136.738 35.8017C136.647 35.7782 136.554 35.7644 136.466 35.7644C136.034 35.7644 135.633 36.0315 135.513 36.4437ZM103.877 37.3035C103.72 37.8002 104.028 38.3224 104.548 38.4716C105.069 38.6207 105.616 38.3401 105.771 37.8356C105.928 37.337 105.631 36.8128 105.106 36.6615C105.015 36.634 104.924 36.6243 104.833 36.6243C104.406 36.6243 104.011 36.8951 103.877 37.3035ZM135.113 41.2121C135.005 41.5832 135.222 41.9817 135.608 42.0857C136.005 42.1957 136.41 41.9837 136.521 41.6068C136.641 41.2357 136.418 40.8392 136.026 40.7292C135.959 40.7116 135.891 40.7037 135.825 40.7037C135.509 40.7037 135.208 40.904 135.113 41.2121ZM104.581 41.9013C104.4 42.5176 104.749 43.1695 105.406 43.3501C106.044 43.5366 106.726 43.1753 106.916 42.5531C107.104 41.9366 106.732 41.2887 106.091 41.118C105.972 41.0826 105.852 41.0669 105.732 41.0669C105.207 41.0669 104.728 41.3947 104.581 41.9013ZM132.76 45.4231C132.607 45.9258 132.906 46.4519 133.421 46.5932C133.952 46.7424 134.501 46.4538 134.654 45.9571C134.805 45.4624 134.507 44.9304 133.985 44.7812C133.894 44.7556 133.801 44.7439 133.708 44.7439C133.28 44.7439 132.886 45.0109 132.76 45.4231ZM106.631 45.9708C106.387 46.7541 106.852 47.5748 107.676 47.8104C108.504 48.044 109.355 47.5924 109.603 46.8071C109.845 46.0238 109.368 45.1955 108.548 44.9619C108.403 44.9206 108.256 44.9009 108.112 44.9009C107.445 44.9009 106.833 45.3231 106.631 45.9708ZM129.13 48.8018C128.944 49.4163 129.32 50.066 129.961 50.2506C130.603 50.4331 131.279 50.0758 131.467 49.4653C131.663 48.841 131.293 48.1931 130.649 48.0125C130.531 47.9792 130.415 47.9635 130.301 47.9635C129.773 47.9635 129.287 48.2972 129.13 48.8018ZM110.043 49.1787C109.775 50.0523 110.293 50.9789 111.221 51.2419C112.146 51.4972 113.109 50.9906 113.385 50.1112C113.65 49.2357 113.125 48.3011 112.198 48.044C112.032 47.9968 111.867 47.9753 111.706 47.9753C110.952 47.9753 110.264 48.4464 110.043 49.1787ZM114.265 51.1261C113.96 52.1529 114.555 53.2071 115.623 53.5094C116.682 53.8019 117.802 53.2189 118.104 52.2118C118.416 51.1949 117.814 50.1288 116.746 49.8284C116.558 49.7754 116.368 49.7519 116.182 49.7519C115.315 49.7519 114.517 50.2898 114.265 51.1261ZM124.468 50.9848C124.228 51.7721 124.706 52.5966 125.519 52.8242C126.346 53.056 127.201 52.6084 127.443 51.8191C127.684 51.0418 127.219 50.2153 126.395 49.9855C126.249 49.9424 126.1 49.9227 125.953 49.9227C125.284 49.9227 124.664 50.3428 124.468 50.9848ZM119.421 51.8151C119.153 52.6907 119.684 53.6095 120.605 53.8746C121.531 54.1396 122.499 53.6312 122.762 52.7537C123.03 51.8682 122.512 50.9416 121.588 50.6825C121.421 50.6372 121.256 50.6137 121.093 50.6137C120.339 50.6137 119.647 51.0849 119.421 51.8151Z" fill="black"/>
<path d="M121.792 16.3511C121.087 17.1209 121.12 18.3371 121.876 19.0653C122.627 19.7934 123.812 19.7576 124.514 18.9858C125.223 18.2102 125.184 16.9999 124.435 16.2698C124.075 15.9226 123.615 15.75 123.158 15.75C122.66 15.75 122.162 15.9524 121.792 16.3511ZM115.872 16.8214C115.315 17.4324 115.342 18.3868 115.938 18.9621C116.524 19.5315 117.458 19.4998 118.018 18.8946C118.569 18.2895 118.544 17.3273 117.954 16.7579C117.668 16.4821 117.306 16.3492 116.944 16.3492C116.553 16.3492 116.162 16.5079 115.872 16.8214ZM127.593 17.9702C126.797 18.8372 126.832 20.2001 127.677 21.0234C128.521 21.8429 129.862 21.7992 130.652 20.9362C131.446 20.0672 131.411 18.6963 130.567 17.8828C130.156 17.486 129.636 17.2895 129.121 17.2895C128.562 17.2895 128.008 17.5198 127.593 17.9702ZM110.222 19.1684C109.773 19.6605 109.794 20.4282 110.271 20.8984C110.755 21.3587 111.506 21.3369 111.958 20.8449C112.41 20.3548 112.384 19.581 111.909 19.1189C111.676 18.8946 111.382 18.7835 111.088 18.7835C110.773 18.7835 110.458 18.9145 110.222 19.1684ZM132.501 21.3508C131.581 22.3448 131.618 23.9121 132.597 24.8566C133.568 25.8029 135.101 25.7512 136.012 24.7632C136.933 23.7514 136.888 22.1821 135.917 21.2397C135.45 20.7874 134.854 20.567 134.262 20.567C133.616 20.567 132.976 20.8291 132.501 21.3508ZM105.53 23.2892C105.189 23.6582 105.207 24.2316 105.565 24.5788C105.927 24.9299 106.488 24.908 106.818 24.5431C107.157 24.1759 107.141 23.5986 106.785 23.2515C106.61 23.0868 106.39 23.0055 106.17 23.0055C105.937 23.0055 105.703 23.1007 105.53 23.2892ZM136.532 26.6202C135.734 27.4852 135.771 28.8543 136.621 29.6736C137.468 30.4949 138.799 30.4435 139.591 29.5804C140.391 28.7114 140.354 27.3523 139.499 26.525C139.099 26.1342 138.585 25.9397 138.067 25.9397C137.507 25.9397 136.946 26.168 136.532 26.6202ZM101.805 28.3443C101.35 28.8364 101.375 29.6062 101.86 30.0743C102.333 30.5347 103.086 30.5148 103.541 30.0288C103.987 29.5347 103.969 28.7631 103.489 28.2988C103.259 28.0745 102.965 27.9634 102.673 27.9634C102.356 27.9634 102.041 28.0924 101.805 28.3443ZM138.795 32.7925C138.083 33.5642 138.12 34.7805 138.875 35.5046C139.624 36.2387 140.811 36.193 141.516 35.4232C142.23 34.6555 142.191 33.4392 141.438 32.7091C141.076 32.362 140.613 32.1894 140.153 32.1894C139.657 32.1894 139.161 32.3897 138.795 32.7925ZM99.863 34.2804C99.316 34.8935 99.3298 35.8398 99.9271 36.4132C100.513 36.9886 101.451 36.9569 102.008 36.3558C102.566 35.7506 102.533 34.7844 101.947 34.215C101.661 33.9393 101.297 33.8022 100.933 33.8022C100.542 33.8022 100.151 33.963 99.863 34.2804ZM139.264 39.4527C138.709 40.0598 138.742 41.0161 139.33 41.5855C139.93 42.1628 140.852 42.1312 141.412 41.5221C141.967 40.9169 141.948 39.9627 141.346 39.3873C141.064 39.1135 140.702 38.9786 140.338 38.9786C139.947 38.9786 139.554 39.1372 139.264 39.4527ZM99.7559 40.3753C99.0514 41.143 99.0864 42.3652 99.8376 43.0914C100.593 43.8215 101.772 43.7838 102.481 43.0119C103.189 42.2442 103.154 41.026 102.401 40.2919C102.041 39.9408 101.583 39.7702 101.124 39.7702C100.626 39.7702 100.126 39.9746 99.7559 40.3753ZM137.734 45.7776C137.283 46.2678 137.304 47.0454 137.783 47.5136C138.269 47.976 139.023 47.9501 139.474 47.4542C139.922 46.9641 139.904 46.1883 139.424 45.7222C139.192 45.4999 138.898 45.3908 138.604 45.3908C138.289 45.3908 137.97 45.5217 137.734 45.7776ZM101.687 46.226C100.891 47.0871 100.916 48.4561 101.766 49.2794C102.617 50.0928 103.952 50.0493 104.742 49.1862C105.536 48.3212 105.499 46.9462 104.656 46.1348C104.25 45.7381 103.734 45.5456 103.222 45.5456C102.661 45.5456 102.101 45.7776 101.687 46.226ZM105.258 51.0452C104.345 52.0551 104.388 53.6105 105.363 54.5608C106.334 55.5013 107.865 55.4576 108.778 54.4557C109.697 53.4557 109.65 51.8884 108.677 50.942C108.208 50.4896 107.61 50.2655 107.017 50.2635C106.375 50.2635 105.732 50.5273 105.258 51.0452ZM134.451 51.2634C134.117 51.6325 134.134 52.2098 134.49 52.555C134.85 52.8963 135.409 52.8844 135.743 52.5093C136.082 52.1463 136.068 51.567 135.704 51.2257C135.537 51.0591 135.317 50.9757 135.099 50.9757C134.86 50.9757 134.624 51.0729 134.451 51.2634ZM110.621 54.8763C109.829 55.7314 109.866 57.1004 110.716 57.9217C111.561 58.745 112.894 58.6993 113.684 57.8343C114.478 56.9594 114.449 55.5984 113.595 54.7791C113.192 54.3881 112.672 54.1938 112.157 54.1938C112.153 54.1938 112.149 54.1938 112.149 54.1938C111.59 54.1938 111.034 54.4239 110.621 54.8763ZM129.317 54.9575C128.864 55.4496 128.885 56.2254 129.364 56.6876C129.849 57.1519 130.604 57.128 131.051 56.6361C131.503 56.148 131.481 55.3743 131.001 54.908C130.771 54.6838 130.477 54.5727 130.181 54.5727C129.866 54.5727 129.551 54.7016 129.317 54.9575ZM116.755 56.8165C116.047 57.5844 116.082 58.8086 116.835 59.5268C117.596 60.2609 118.771 60.2251 119.478 59.4513C120.188 58.6836 120.159 57.4634 119.404 56.7392C119.042 56.386 118.583 56.2155 118.121 56.2155C117.621 56.2155 117.123 56.4178 116.755 56.8165ZM123.257 56.9119C122.702 57.5111 122.732 58.4752 123.321 59.0466C123.915 59.62 124.847 59.5842 125.404 58.9771C125.96 58.3781 125.939 57.4177 125.343 56.8443C125.057 56.5686 124.695 56.4337 124.333 56.4337C123.94 56.4337 123.549 56.5944 123.257 56.9119Z" fill="black"/>
<path d="M124.244 9.67318C123.33 9.85586 122.738 10.7429 122.921 11.6705C123.103 12.5879 123.993 13.1847 124.905 13C125.817 12.8153 126.407 11.9222 126.224 11.0047C126.062 10.1908 125.363 9.63867 124.579 9.63867C124.469 9.63867 124.358 9.65085 124.244 9.67318ZM117.264 10.1339C116.549 10.2415 116.048 10.9113 116.154 11.64C116.261 12.3667 116.93 12.864 117.647 12.7605C118.367 12.6529 118.867 11.9831 118.76 11.2544C118.667 10.5927 118.103 10.1197 117.459 10.1197C117.394 10.1197 117.331 10.1258 117.264 10.1339ZM130.971 11.1062C129.88 11.3863 129.218 12.5027 129.499 13.6089C129.777 14.7091 130.892 15.3789 131.982 15.0927C133.07 14.8126 133.731 13.6901 133.451 12.592C133.214 11.6563 132.385 11.0413 131.477 11.0413C131.309 11.0413 131.141 11.0616 130.971 11.1062ZM110.124 12.2713C109.504 12.5413 109.214 13.2659 109.484 13.8972C109.749 14.5223 110.475 14.8085 111.095 14.5406C111.715 14.2686 112.005 13.542 111.738 12.9168C111.537 12.4479 111.085 12.1698 110.613 12.1698C110.449 12.1698 110.282 12.2023 110.124 12.2713ZM136.931 14.1509C135.596 14.5711 134.84 16.0081 135.261 17.364C135.679 18.7159 137.109 19.4709 138.445 19.0488C139.789 18.6245 140.535 17.1854 140.117 15.8356C139.775 14.7355 138.773 14.0332 137.695 14.0332C137.44 14.0332 137.184 14.0717 136.931 14.1509ZM103.68 16.0447C103.112 16.5014 103.013 17.3296 103.463 17.908C103.915 18.4844 104.743 18.5799 105.311 18.1273C105.882 17.6706 105.982 16.8383 105.53 16.2598C105.27 15.929 104.887 15.7565 104.5 15.7565C104.215 15.7565 103.925 15.8519 103.68 16.0447ZM141.83 18.9452C140.376 19.4873 139.629 21.107 140.172 22.5786C140.709 24.0481 142.324 24.795 143.771 24.2531C145.224 23.7132 145.97 22.0813 145.431 20.6158C145.009 19.4669 143.939 18.7686 142.804 18.7686C142.48 18.7686 142.15 18.8254 141.83 18.9452ZM98.5601 20.8471C97.8002 21.3892 97.6158 22.4446 98.1589 23.2159C98.6979 23.9792 99.7478 24.1598 100.504 23.6179C101.264 23.0739 101.444 22.0143 100.905 21.2511C100.577 20.7822 100.06 20.5326 99.535 20.5326C99.1966 20.5326 98.856 20.634 98.5601 20.8471ZM145.236 24.9432C143.686 25.6193 142.971 27.4176 143.639 28.9866C144.308 30.5495 146.102 31.2702 147.65 30.5983C149.197 29.9244 149.914 28.1097 149.243 26.5509C148.747 25.3837 147.624 24.6916 146.446 24.6916C146.041 24.6916 145.63 24.7707 145.236 24.9432ZM94.975 26.764C94.0264 27.375 93.7366 28.6375 94.3447 29.6037C94.9466 30.5637 96.2072 30.85 97.1578 30.2431C98.1143 29.6382 98.394 28.3615 97.79 27.3993C97.4008 26.7802 96.7442 26.4433 96.0694 26.4433C95.6945 26.4433 95.3154 26.5489 94.975 26.764ZM147.146 32.143C145.761 32.8351 145.192 34.5341 145.877 35.9285C146.57 37.3412 148.248 37.9034 149.636 37.2114C151.023 36.5213 151.594 34.8283 150.903 33.4237C150.415 32.4271 149.42 31.8507 148.386 31.8507C147.968 31.8507 147.545 31.9441 147.146 32.143ZM93.078 33.2329C91.8519 33.9251 91.4161 35.486 92.1072 36.7241C92.7943 37.9563 94.3427 38.4007 95.5687 37.7045C96.7949 37.0124 97.2306 35.4454 96.5416 34.2093C96.0735 33.371 95.2141 32.9021 94.3243 32.9021C94.3204 32.9021 94.3184 32.9021 94.3143 32.9021C93.8947 32.9021 93.4691 33.0097 93.078 33.2329ZM147.241 39.6228C146.021 40.3129 145.581 41.8799 146.268 43.12C146.959 44.3582 148.512 44.7865 149.73 44.0944C150.956 43.4002 151.393 41.8432 150.702 40.6031C150.236 39.7649 149.373 39.2919 148.485 39.2919C148.064 39.2919 147.636 39.3974 147.241 39.6228ZM93.1733 40.1159C91.7931 40.804 91.2155 42.497 91.9045 43.9056C92.5937 45.3061 94.2799 45.8785 95.668 45.1843C97.0543 44.4922 97.6217 42.7932 96.9327 41.3927C96.4423 40.392 95.4554 39.8156 94.4278 39.8156C94.0063 39.8156 93.5786 39.9129 93.1733 40.1159ZM95.1614 46.731C93.6171 47.4009 92.8956 49.2074 93.5664 50.7764C94.2312 52.3373 96.0348 53.0558 97.5793 52.3841C99.1216 51.7102 99.8349 49.8996 99.1662 48.3366C98.6675 47.1715 97.5469 46.4794 96.3693 46.4794C95.9659 46.4794 95.5567 46.5585 95.1614 46.731ZM145.656 47.0823C144.703 47.6891 144.418 48.9639 145.024 49.9198C145.628 50.8861 146.886 51.1661 147.837 50.5593C148.787 49.9523 149.077 48.6858 148.471 47.7195C148.082 47.1024 147.417 46.7636 146.74 46.7636C146.369 46.7636 145.994 46.867 145.656 47.0823ZM99.0385 53.0742C97.5874 53.6161 96.8415 55.248 97.3807 56.7075C97.9218 58.1871 99.537 58.922 100.982 58.378C102.439 57.8339 103.183 56.2203 102.642 54.7426C102.222 53.6038 101.152 52.8956 100.011 52.8956C99.689 52.8956 99.3587 52.9524 99.0385 53.0742ZM142.308 53.7094C141.546 54.2515 141.37 55.311 141.907 56.0762C142.446 56.8454 143.496 57.024 144.258 56.4841C145.014 55.9422 145.194 54.8847 144.653 54.1114C144.327 53.6445 143.806 53.3968 143.279 53.3948C142.942 53.3948 142.602 53.4984 142.308 53.7094ZM104.365 58.2785C103.023 58.6986 102.277 60.1358 102.697 61.4897C103.116 62.8516 104.537 63.5986 105.878 63.1724C107.218 62.7542 107.97 61.3192 107.55 59.9653C107.212 58.8652 106.205 58.1609 105.121 58.1609C104.871 58.1609 104.616 58.1994 104.365 58.2785ZM137.497 59.2C136.931 59.6567 136.834 60.491 137.282 61.0635C137.734 61.6439 138.563 61.7352 139.132 61.2806C139.702 60.8259 139.799 59.9957 139.351 59.4173C139.092 59.0864 138.706 58.9139 138.317 58.9139C138.032 58.9139 137.742 59.0072 137.497 59.2ZM110.834 62.2346C109.743 62.5167 109.087 63.6332 109.364 64.7333C109.642 65.8435 110.753 66.5012 111.843 66.221C112.935 65.9389 113.596 64.8245 113.316 63.7184C113.083 62.7888 112.25 62.1696 111.342 62.1696C111.174 62.1696 111.004 62.192 110.834 62.2346ZM131.719 62.7888C131.098 63.0566 130.811 63.7833 131.078 64.4085C131.35 65.0418 132.069 65.3259 132.689 65.058C133.312 64.788 133.601 64.0594 133.334 63.4321C133.133 62.9652 132.679 62.6872 132.205 62.6872C132.043 62.6872 131.877 62.7197 131.719 62.7888ZM117.907 64.3252C116.997 64.51 116.405 65.4092 116.587 66.3246C116.77 67.2502 117.659 67.8449 118.569 67.6602C119.48 67.4755 120.075 66.5804 119.891 65.6547C119.729 64.8509 119.025 64.2929 118.237 64.2929C118.128 64.2929 118.018 64.3029 117.907 64.3252ZM125.162 64.5648C124.449 64.6743 123.948 65.3482 124.054 66.0729C124.159 66.8016 124.832 67.2989 125.545 67.1933C126.267 67.0858 126.767 66.416 126.66 65.6872C126.567 65.0256 126.001 64.5526 125.351 64.5526C125.29 64.5526 125.227 64.5546 125.162 64.5648Z" fill="black"/>
<path d="M119.097 3.54028C119.097 4.39555 119.791 5.08452 120.64 5.08452C121.493 5.08452 122.187 4.39555 122.187 3.54028C122.187 2.68303 121.493 2 120.64 2C119.791 2 119.097 2.68303 119.097 3.54028ZM111.322 3.11264C110.437 3.34824 109.911 4.253 110.146 5.13994C110.385 6.02887 111.298 6.54957 112.178 6.31397C113.065 6.07639 113.591 5.16964 113.356 4.28071C113.156 3.53829 112.489 3.05325 111.759 3.05325C111.615 3.05325 111.468 3.07305 111.322 3.11264ZM127.93 4.2827C127.693 5.16964 128.219 6.07639 129.102 6.31397C129.987 6.55154 130.9 6.02887 131.137 5.14193C131.373 4.25498 130.844 3.35022 129.957 3.11264C129.814 3.07305 129.668 3.05523 129.527 3.05523C128.797 3.05523 128.127 3.53829 127.93 4.2827ZM103.024 6.06452C101.875 6.30803 101.142 7.42661 101.387 8.58083C101.63 9.72514 102.757 10.4557 103.903 10.2122C105.051 9.96866 105.783 8.84215 105.537 7.69388C105.326 6.69408 104.449 6.01502 103.47 6.01502C103.323 6.01502 103.173 6.03086 103.024 6.06452ZM135.744 7.69388C135.499 8.84215 136.231 9.96866 137.379 10.2122C138.523 10.4557 139.651 9.72514 139.893 8.58083C140.142 7.42661 139.406 6.30803 138.26 6.06649C138.11 6.03283 137.959 6.017 137.809 6.017C136.831 6.017 135.955 6.69408 135.744 7.69388ZM95.9509 11.0655C94.5496 11.2872 93.5927 12.5939 93.816 14.0055C94.0372 15.4071 95.3529 16.3674 96.7543 16.1456C98.1576 15.9239 99.1146 14.6033 98.8932 13.1997C98.6919 11.9287 97.6015 11.0338 96.3595 11.0338C96.224 11.0338 96.0885 11.0437 95.9509 11.0655ZM142.39 13.2017C142.171 14.6053 143.126 15.9259 144.527 16.1476C145.927 16.3693 147.248 15.4091 147.468 14.0074C147.693 12.5958 146.73 11.2892 145.335 11.0675C145.199 11.0457 145.061 11.0358 144.928 11.0358C143.686 11.0358 142.594 11.9287 142.39 13.2017ZM147.197 20.3884C147.013 22.1464 148.297 23.7242 150.049 23.9103C151.811 24.0964 153.386 22.8135 153.571 21.0555C153.759 19.2876 152.481 17.7195 150.723 17.5334C150.607 17.5215 150.496 17.5157 150.382 17.5157C148.767 17.5157 147.372 18.7352 147.197 20.3884ZM90.5586 17.5334C88.7945 17.7195 87.5226 19.2876 87.708 21.0555C87.8914 22.8135 89.4642 24.0964 91.2285 23.9083C92.9867 23.7242 94.2665 22.1464 94.081 20.3884C93.9076 18.7352 92.5163 17.5157 90.9016 17.5157C90.7879 17.5157 90.6742 17.5215 90.5586 17.5334ZM150.3 28.8203C150.199 30.7703 151.696 32.4353 153.637 32.5382C155.589 32.6372 157.256 31.1405 157.357 29.1904C157.459 27.2305 155.956 25.5793 154.012 25.4784C153.948 25.4744 153.885 25.4725 153.821 25.4725C151.959 25.4725 150.4 26.9255 150.3 28.8203ZM87.2635 25.4784C85.3238 25.5793 83.8188 27.2305 83.9225 29.1904C84.0241 31.1405 85.6926 32.6372 87.6402 32.5382C89.5878 32.4353 91.0849 30.7703 90.9833 28.8203C90.8835 26.9255 89.3267 25.4725 87.4549 25.4725C87.391 25.4725 87.3273 25.4744 87.2635 25.4784ZM151.146 37.8996C151.146 40.0258 152.864 41.7502 154.985 41.7502C157.112 41.7502 158.834 40.0258 158.834 37.9034C158.834 35.7673 157.112 34.0588 154.991 34.0588C152.864 34.0588 151.146 35.7673 151.146 37.8996ZM82.4453 37.9034C82.4453 40.0258 84.1757 41.7502 86.2947 41.7502C88.4098 41.7502 90.132 40.0258 90.132 37.8996C90.132 35.7673 88.4098 34.0588 86.2947 34.0588C84.1757 34.0588 82.4453 35.7673 82.4453 37.9034ZM153.637 43.2688C151.696 43.3716 150.199 45.0348 150.3 46.9828C150.404 48.9448 152.066 50.4256 154.012 50.3266C155.956 50.2238 157.456 48.5746 157.355 46.6126C157.258 44.7298 155.692 43.2648 153.825 43.2648C153.763 43.2648 153.701 43.2668 153.637 43.2688ZM83.9245 46.6126C83.8228 48.5746 85.3238 50.2238 87.2654 50.3266C89.219 50.4276 90.8796 48.9448 90.9853 46.9828C91.0849 45.0348 89.5878 43.3716 87.6422 43.2688C87.5785 43.2668 87.5166 43.2648 87.4549 43.2648C85.589 43.2648 84.0221 44.7298 83.9245 46.6126ZM150.049 51.8967C148.295 52.0808 147.013 53.6587 147.197 55.4207C147.384 57.1886 148.967 58.4557 150.721 58.2716C152.481 58.0856 153.759 56.5194 153.571 54.7495C153.398 53.1044 152.007 51.8788 150.388 51.8788C150.278 51.8788 150.165 51.8848 150.049 51.8967ZM87.708 54.7495C87.5226 56.5194 88.7964 58.0856 90.5586 58.2716C92.3169 58.4557 93.8957 57.1886 94.081 55.4207C94.2665 53.6587 92.9867 52.0808 91.2285 51.8967C91.1129 51.8848 90.9992 51.8788 90.8855 51.8788C89.2668 51.8788 87.8795 53.1044 87.708 54.7495ZM144.529 59.6614C143.126 59.8851 142.167 61.2017 142.39 62.6035C142.613 64.013 143.931 64.9613 145.333 64.7396C146.73 64.5179 147.691 63.2092 147.468 61.7996C147.266 60.5326 146.17 59.6298 144.93 59.6298C144.798 59.6298 144.663 59.6416 144.529 59.6614ZM93.8179 61.7996C93.5927 63.2092 94.5516 64.5199 95.9509 64.7396C97.3523 64.9613 98.67 64.013 98.8952 62.6035C99.1146 61.2037 98.1576 59.8851 96.7543 59.6634C96.6167 59.6436 96.4831 59.6317 96.3496 59.6317C95.1097 59.6317 94.0153 60.5346 93.8179 61.7996ZM137.379 65.5928C136.231 65.8364 135.497 66.9669 135.742 68.1092C135.987 69.2635 137.112 69.9919 138.26 69.7465C139.406 69.505 140.14 68.3804 139.893 67.2262C139.681 66.2324 138.798 65.5453 137.817 65.5453C137.672 65.5453 137.524 65.5592 137.379 65.5928ZM101.389 67.2282C101.142 68.3804 101.875 69.505 103.022 69.7485C104.168 69.9919 105.294 69.2635 105.537 68.1092C105.783 66.9669 105.051 65.8364 103.903 65.5928C103.757 65.5592 103.61 65.5453 103.464 65.5453C102.483 65.5453 101.6 66.2324 101.389 67.2282ZM129.1 69.4931C128.219 69.7307 127.693 70.6374 127.926 71.5264C128.165 72.4113 129.076 72.9319 129.957 72.6944C130.846 72.4588 131.37 71.554 131.135 70.665C130.938 69.9247 130.264 69.4356 129.53 69.4356C129.389 69.4356 129.243 69.4535 129.1 69.4931ZM110.146 70.669C109.911 71.554 110.439 72.4588 111.322 72.6944C112.209 72.9319 113.119 72.4113 113.356 71.5244C113.591 70.6374 113.065 69.7307 112.178 69.4931C112.036 69.4555 111.892 69.4356 111.751 69.4356C111.021 69.4356 110.346 69.9247 110.146 70.669ZM119.097 72.2667C119.097 73.0864 119.735 73.7516 120.536 73.8051H120.745C121.549 73.7516 122.187 73.0864 122.187 72.2648C122.187 71.4135 121.493 70.7225 120.64 70.7225C119.791 70.7225 119.097 71.4135 119.097 72.2667Z" fill="black"/>
<path d="M197.097 107.681C197.097 109.444 197.167 109.491 198.892 109.491H204.658C204.902 109.491 205.111 109.68 205.111 109.911V111.253C205.111 111.55 204.995 111.656 204.658 111.696C203.926 111.802 202.445 111.99 199.738 111.99C195.952 111.99 193.952 112.014 193.952 107.681V101.029C193.952 96.6975 195.952 96.7227 199.738 96.7227C202.445 96.7227 203.926 96.9123 204.658 97.0149C204.995 97.0551 205.111 97.1623 205.111 97.4583V98.8009C205.111 99.0305 204.902 99.2229 204.658 99.2229H198.892C197.167 99.2229 197.097 99.2705 197.097 101.029V102.957H204.381C204.635 102.957 204.833 103.149 204.833 103.377V104.895C204.833 105.123 204.635 105.313 204.381 105.313H197.097V107.681ZM230.763 112C228.749 112 226.711 111.68 225.617 111.448C225.391 111.406 225.185 111.261 225.185 111.029V109.515C225.185 109.285 225.391 109.115 225.617 109.115H225.663C226.573 109.22 228.705 109.494 230.808 109.494C232.833 109.494 233.453 108.825 233.453 107.606C233.453 106.029 229.377 105.157 227.388 104.399C225.408 103.644 224.707 102.194 224.707 100.724C224.707 98.4098 226.722 96.7292 230.955 96.7292C233.125 96.7292 235.111 97.1101 235.885 97.2809C236.114 97.322 236.295 97.4696 236.295 97.6787V99.2351C236.295 99.4432 236.139 99.6132 235.907 99.6132H235.864C234.359 99.4881 232.801 99.2313 230.824 99.2313C229.136 99.2313 227.874 99.7783 227.874 100.724C227.874 101.416 228.729 102.052 229.739 102.422C230.75 102.79 232.075 103.267 233.589 103.829C235.506 104.546 236.75 105.589 236.75 107.606C236.75 109.728 235.317 112 230.763 112ZM218.658 101.473C218.658 99.896 217.333 99.2229 215.053 99.2229C214.577 99.2229 212.506 99.2649 212.096 99.3069V103.866C212.464 103.887 214.672 103.929 215.053 103.929C217.404 103.929 218.658 103.512 218.658 101.663V101.473ZM222.074 111.824H219.295C219.045 111.824 218.954 111.61 218.843 111.403L215.56 106.304H215.053C214.464 106.304 212.623 106.245 212.096 106.22V111.403C212.096 111.632 211.916 111.824 211.667 111.824H209.392C209.142 111.824 208.937 111.632 208.937 111.403V97.6245C208.937 97.2025 209.207 97.0551 209.663 96.9943C210.845 96.8262 213.395 96.7227 215.053 96.7227C218.562 96.7227 221.798 97.8795 221.798 101.473V101.663C221.798 103.888 220.589 105.108 218.724 105.777L222.3 111.403C222.346 111.466 222.346 111.526 222.346 111.573C222.346 111.716 222.254 111.824 222.074 111.824ZM191.16 99.3266H186.617V111.403C186.617 111.632 186.408 111.824 186.158 111.824H183.904C183.654 111.824 183.449 111.632 183.449 111.403V99.3266H178.904C178.656 99.3266 178.45 99.1818 178.45 98.9494V97.2884C178.45 97.0551 178.656 96.8889 178.904 96.8889H191.16C191.406 96.8889 191.61 97.0551 191.61 97.2884V98.9494C191.61 99.1818 191.406 99.3266 191.16 99.3266ZM169.367 111.99C165.704 111.99 162.549 110.519 162.549 106.038V97.2884C162.549 97.0551 162.757 96.8889 163.007 96.8889H165.256C165.51 96.8889 165.713 97.0551 165.713 97.2884V106.038C165.713 108.437 166.912 109.573 169.367 109.573C171.827 109.573 173.025 108.437 173.025 106.038V97.2884C173.025 97.0551 173.228 96.8889 173.479 96.8889H175.732C175.986 96.8889 176.19 97.0551 176.19 97.2884V106.038C176.19 110.519 173.034 111.99 169.367 111.99ZM151.131 107.681C151.131 109.444 151.204 109.491 152.925 109.491H158.69C158.94 109.491 159.145 109.68 159.145 109.911V111.253C159.145 111.55 159.03 111.656 158.69 111.696C157.961 111.802 156.477 111.99 153.77 111.99C149.992 111.99 147.988 112.014 147.988 107.681V101.029C147.988 96.6975 149.992 96.7227 153.77 96.7227C156.477 96.7227 157.961 96.9123 158.69 97.0149C159.03 97.0551 159.145 97.1623 159.145 97.4583V98.8009C159.145 99.0305 158.94 99.2229 158.69 99.2229H152.925C151.204 99.2229 151.131 99.2705 151.131 101.029V102.957H158.416C158.667 102.957 158.873 103.149 158.873 103.377V104.895C158.873 105.123 158.667 105.313 158.416 105.313H151.131V107.681ZM141.374 101.473C141.374 99.896 140.048 99.2229 137.772 99.2229C137.292 99.2229 135.221 99.2649 134.814 99.3069V103.866C135.176 103.887 137.38 103.929 137.772 103.929C140.114 103.929 141.374 103.512 141.374 101.663V101.473ZM144.789 111.824H142.009C141.761 111.824 141.668 111.61 141.554 111.403L138.275 106.304H137.772C137.177 106.304 135.337 106.245 134.814 106.22V111.403C134.814 111.632 134.631 111.824 134.38 111.824H132.103C131.855 111.824 131.65 111.632 131.65 111.403V97.6245C131.65 97.2025 131.92 97.0551 132.377 96.9943C133.562 96.8262 136.108 96.7227 137.772 96.7227C141.277 96.7227 144.514 97.8795 144.514 101.473V101.663C144.514 103.888 143.309 105.108 141.442 105.777L145.014 111.403C145.061 111.466 145.061 111.526 145.061 111.573C145.061 111.716 144.97 111.824 144.789 111.824ZM100.558 103.28C100.558 100.506 98.7414 99.2649 96.5102 99.2649C94.2792 99.2649 92.4627 100.506 92.4627 103.28V105.431C92.4627 108.207 94.2792 109.446 96.5102 109.446C98.7414 109.446 100.558 108.207 100.558 105.431V103.28ZM96.5102 111.99C92.7548 111.99 89.2773 110.057 89.2773 105.431V103.28C89.2773 98.6562 92.7548 96.7227 96.5102 96.7227C100.266 96.7227 103.742 98.6562 103.742 103.28V105.431C103.742 110.057 100.266 111.99 96.5102 111.99ZM80.4186 112C78.409 112 76.3669 111.68 75.2731 111.448C75.0456 111.406 74.8404 111.261 74.8404 111.029V109.515C74.8404 109.285 75.0456 109.115 75.2731 109.115H75.3186C76.2284 109.22 78.3595 109.494 80.4641 109.494C82.492 109.494 83.1057 108.825 83.1057 107.606C83.1057 106.029 79.0367 105.157 77.0482 104.399C75.0637 103.644 74.3633 102.194 74.3633 100.724C74.3633 98.4098 76.381 96.7292 80.6137 96.7292C82.7842 96.7292 84.7706 97.1101 85.5419 97.2809C85.7713 97.322 85.9504 97.4696 85.9504 97.6787V99.2351C85.9504 99.4432 85.7926 99.6132 85.5662 99.6132H85.5206C84.0155 99.4881 82.4576 99.2313 80.4753 99.2313C78.795 99.2313 77.5274 99.7783 77.5274 100.724C77.5274 101.416 78.3847 102.054 79.3915 102.422C80.4024 102.79 81.7317 103.267 83.2441 103.829C85.1669 104.546 86.4093 105.589 86.4093 107.606C86.4093 109.728 84.9758 112 80.4186 112ZM120.271 111.824H117.968C117.421 111.824 116.942 111.824 116.584 111.068L110.408 101.515C110.343 101.39 110.272 101.344 110.205 101.344C110.139 101.344 110.09 101.39 110.09 101.515V111.403C110.09 111.632 109.907 111.824 109.656 111.824H107.725C107.471 111.824 107.271 111.632 107.271 111.403V97.7291C107.271 97.2661 107.676 96.8889 108.177 96.8889H110.637C111.115 96.8889 111.364 97.0149 111.641 97.5648L118.061 107.681C118.104 107.784 118.172 107.85 118.243 107.85C118.288 107.85 118.353 107.784 118.353 107.66V97.2884C118.353 97.0551 118.535 96.8889 118.788 96.8889H120.746C120.997 96.8889 121.181 97.0551 121.181 97.2884V110.982C121.181 111.446 120.77 111.824 120.271 111.824ZM70.265 111.824H67.9652C67.762 111.824 67.6044 111.61 67.6044 111.403V102.312C67.6044 102.166 67.5801 102.103 67.5306 102.103C67.5133 102.103 67.4669 102.166 67.4183 102.228L63.7426 109.746C63.6082 109.974 63.3141 110.104 63.0188 110.104H61.835C61.5388 110.104 61.2427 109.974 61.1092 109.746L57.4092 102.228C57.3617 102.166 57.3142 102.103 57.2951 102.103C57.2496 102.103 57.2253 102.166 57.2253 102.312V111.403C57.2253 111.61 57.0656 111.824 56.8603 111.824H54.5636C54.3573 111.824 54.1734 111.716 54.1734 111.508V97.7291C54.1734 97.2661 54.5848 96.8889 55.0852 96.8889H56.9524C57.3142 96.8889 57.6347 97.098 57.7944 97.393L62.1626 105.606C62.2747 105.795 62.3222 105.9 62.4173 105.9C62.5063 105.9 62.5517 105.795 62.6671 105.606L67.0321 97.393C67.1919 97.098 67.5133 96.8889 67.8752 96.8889H69.7434C70.2438 96.8889 70.6532 97.2661 70.6532 97.7291V111.508C70.6532 111.716 70.4702 111.824 70.265 111.824ZM47.4609 103.28C47.4609 100.506 45.6462 99.2649 43.4142 99.2649C41.1842 99.2649 39.3675 100.506 39.3675 103.28V105.431C39.3675 108.207 41.1842 109.446 43.4142 109.446C45.6462 109.446 47.4609 108.207 47.4609 105.431V103.28ZM43.4142 111.99C39.6587 111.99 36.1821 110.057 36.1821 105.431V103.28C36.1821 98.6562 39.6587 96.7227 43.4142 96.7227C47.1717 96.7227 50.6503 98.6562 50.6503 103.28V105.431C50.6503 110.057 47.1717 111.99 43.4142 111.99ZM32.1324 111.824H29.8811C29.6273 111.824 29.4212 111.632 29.4212 111.403V105.313H22.2103V111.403C22.2103 111.632 22.0062 111.824 21.7594 111.824H19.5041C19.2514 111.824 19.0472 111.632 19.0472 111.403V97.2884C19.0472 97.0551 19.2514 96.8889 19.5041 96.8889H21.7594C22.0062 96.8889 22.2103 97.0551 22.2103 97.2884V102.748H29.4212V97.2884C29.4212 97.0551 29.6273 96.8889 29.8811 96.8889H32.1324C32.3801 96.8889 32.5863 97.0551 32.5863 97.2884V111.403C32.5863 111.632 32.3801 111.824 32.1324 111.824ZM15.7072 99.3266H11.1651V111.403C11.1651 111.632 10.9609 111.824 10.7072 111.824H8.45791C8.2072 111.824 8.003 111.632 8.003 111.403V99.3266H3.45592C3.20622 99.3266 3 99.1818 3 98.9494V97.2884C3 97.0551 3.20622 96.8889 3.45592 96.8889H15.7072C15.9579 96.8889 16.1631 97.0551 16.1631 97.2884V98.9494C16.1631 99.1818 15.9579 99.3266 15.7072 99.3266Z" fill="black"/>
</svg>
