<svg width="536" height="655" viewBox="0 0 536 655" fill="none" xmlns="http://www.w3.org/2000/svg">
<g clip-path="url(#clip0_1444_20635)">
<path d="M15.9639 0C172.124 0.186667 328.297 0.0266669 484.471 0.0666669C484.471 79.4133 484.351 158.747 484.924 238.08C484.364 238.12 483.257 238.173 482.697 238.213C482.844 221.88 482.751 205.56 482.751 189.227C481.164 151.36 467.764 114.227 445.551 83.5733C417.791 45.2667 376.017 17.1867 329.804 6.74667C300.444 -0.573332 269.937 2.56 240.004 1.89333C220.844 1.41333 204.191 19.5067 205.444 38.4667C205.564 87.56 205.271 136.667 205.591 185.773C270.164 186.6 334.751 185.933 399.337 186.133C399.591 253.347 399.031 320.587 399.724 387.8C399.564 399.8 399.591 411.8 399.671 423.8C399.124 423.8 398.017 423.8 397.457 423.8C397.591 410.933 397.484 398.067 397.537 385.2C398.524 344.947 385.124 304.933 362.151 272.067C338.497 238.373 304.177 212.227 265.257 198.72C226.777 185.28 184.111 183.947 144.964 195.413C80.3105 213.533 27.2172 267.12 9.36387 331.813C8.43053 335.333 7.4972 338.867 6.64387 342.4C4.6572 350.76 3.92387 359.32 2.4572 367.747C0.923868 395.093 3.00387 422.92 12.0439 448.933C26.7639 493.453 58.1772 532.053 98.4572 555.987C128.871 574.36 164.377 583.893 199.857 584.04C235.537 583.933 271.257 576.96 304.084 562.88C358.711 539.693 404.017 498.48 438.964 451.093C458.084 425.16 474.324 397.147 488.111 368.027C505.831 330.173 519.511 290.36 527.817 249.373C531.417 230.853 533.684 212.04 533.617 193.16C533.791 190.827 533.017 187.867 535.524 186.48C535.657 292.68 535.577 398.893 535.511 505.093C531.511 514.547 525.551 523.213 519.897 531.813C492.297 572.52 453.377 605.253 409.017 626.373C351.124 654.053 284.057 661.493 221.364 648.253C154.444 634.427 92.6439 595.907 52.0039 540.827C23.4305 502.653 5.6572 456.547 1.2172 409.08C-0.649467 391 -0.4628 372.653 2.43053 354.68C9.99053 305.293 37.1505 259.28 76.5372 228.587C79.6572 226 83.4305 224 85.5905 220.453C84.3905 206.973 85.3772 193.387 85.0305 179.853C85.0705 169.187 85.0572 158.52 85.0439 147.853C85.0572 110.48 85.0705 73.1067 85.0305 35.7333C84.8972 18.1867 69.4439 2.17333 51.7905 1.93333C39.8839 1.84 27.9639 1.78667 16.0572 2C16.0305 1.49333 15.9905 0.493333 15.9639 0Z" fill="#050505"/>
</g>
<defs>
<clipPath id="clip0_1444_20635">
<rect width="536" height="655" fill="white"/>
</clipPath>
</defs>
</svg>
