<svg width="256" height="256" viewBox="0 0 256 256" fill="none" xmlns="http://www.w3.org/2000/svg">
<rect width="256" height="256" fill="black"/>
<path d="M83.0784 136.458C78.8742 139.347 76.1165 144.189 76.1165 149.675C76.1165 158.388 83.0696 165.477 91.7297 165.697L92.1438 165.703H160.87V165.712C178.197 166.144 192.11 180.326 192.11 197.756C192.11 210.777 184.346 221.983 173.196 227.001C177.4 224.112 180.157 219.27 180.157 213.784C180.157 205.206 173.418 198.201 164.946 197.776V197.756H96.219L95.3909 197.747C78.0704 197.308 64.1645 183.129 64.1643 165.703C64.1643 152.682 71.928 141.476 83.0784 136.458Z" fill="white"/>
<circle cx="208.409" cy="45.3628" r="16.0272" fill="white"/>
<path d="M128.273 29.3356C163.679 29.3356 192.382 58.0378 192.382 93.444C192.382 128.85 163.679 157.553 128.273 157.553C92.8666 157.553 64.1643 128.85 64.1643 93.444C64.1645 58.038 92.8667 29.3357 128.273 29.3356ZM128.273 61.3903C110.57 61.3904 96.2192 75.7411 96.219 93.444C96.219 111.147 110.57 125.498 128.273 125.499C145.976 125.499 160.327 111.147 160.327 93.444C160.327 75.741 145.976 61.3903 128.273 61.3903Z" fill="white"/>
</svg>
